<?xml version="1.0" encoding="UTF-8"?>
<!DOCTYPE svg PUBLIC "-//W3C//DTD SVG 1.1//EN" "http://www.w3.org/Graphics/SVG/1.1/DTD/svg11.dtd">
<svg xmlns="http://www.w3.org/2000/svg" version="1.1" width="2048px" height="2048px" style="shape-rendering:geometricPrecision; text-rendering:geometricPrecision; image-rendering:optimizeQuality; fill-rule:evenodd; clip-rule:evenodd" xmlns:xlink="http://www.w3.org/1999/xlink">
<g><path style="opacity:0.94" fill="#363636" d="M 695.5,54.5 C 735.087,53.0833 773.421,59.25 810.5,73C 919.201,117.485 1019.53,175.485 1111.5,247C 1156.87,283.617 1198.37,324.117 1236,368.5C 1347.47,507.02 1387.47,664.353 1356,840.5C 1352.9,857.084 1349.4,873.584 1345.5,890C 1345.83,890.833 1346.17,891.667 1346.5,892.5C 1426.63,934.126 1488.46,994.459 1532,1073.5C 1598.41,1201.63 1613.41,1335.63 1577,1475.5C 1558.63,1543.58 1534.63,1609.58 1505,1673.5C 1489.27,1707.29 1473.27,1740.95 1457,1774.5C 1432.47,1820.4 1407.3,1865.9 1381.5,1911C 1382.17,1911.67 1382.83,1911.67 1383.5,1911C 1404.95,1893.76 1423.95,1874.09 1440.5,1852C 1446.72,1848.36 1452.39,1849.2 1457.5,1854.5C 1461.17,1859.72 1461.5,1865.22 1458.5,1871C 1442.37,1892.3 1424.03,1911.47 1403.5,1928.5C 1394.62,1935.89 1385.62,1943.05 1376.5,1950C 1369.46,1954.52 1362.12,1958.52 1354.5,1962C 1336.73,1966.7 1325.56,1960.2 1321,1942.5C 1320.09,1927.76 1320.76,1913.1 1323,1898.5C 1327.87,1869.81 1332.87,1841.14 1338,1812.5C 1346.24,1801.68 1353.9,1802.01 1361,1813.5C 1361.67,1817.17 1361.67,1820.83 1361,1824.5C 1355.91,1855.44 1351.58,1886.44 1348,1917.5C 1375,1868.83 1402,1820.17 1429,1771.5C 1462.35,1705.14 1492.68,1637.48 1520,1568.5C 1543.4,1507.83 1559.07,1445.16 1567,1380.5C 1577.77,1262.58 1551.93,1153.58 1489.5,1053.5C 1450.62,995.435 1400.12,950.102 1338,917.5C 1315.68,992.83 1279.35,1060.16 1229,1119.5C 1200.68,1150.48 1168.18,1176.31 1131.5,1197C 1096.96,1215.34 1060.13,1224.84 1021,1225.5C 956.107,1224.15 906.274,1196.49 871.5,1142.5C 848.658,1101.43 843.158,1058.1 855,1012.5C 865.738,976.485 884.905,945.985 912.5,921C 949.458,890.186 991.458,868.853 1038.5,857C 1134.66,835.43 1228.33,843.264 1319.5,880.5C 1357.28,739.909 1343.11,604.909 1277,475.5C 1250.85,429.228 1219.69,386.895 1183.5,348.5C 1138.17,301.508 1088.5,259.508 1034.5,222.5C 961.528,173.505 884.195,132.005 802.5,98C 776.583,88.6948 749.916,82.6948 722.5,80C 712.953,79.7889 703.453,79.6222 694,79.5C 685.345,75.1993 683.345,68.866 688,60.5C 690.558,58.3384 693.058,56.3384 695.5,54.5 Z M 1112.5,871.5 C 1181.74,868.284 1248.41,879.617 1312.5,905.5C 1290.12,992.367 1247.12,1066.7 1183.5,1128.5C 1156.43,1153 1125.76,1172.17 1091.5,1186C 1058.37,1198.56 1024.37,1201.89 989.5,1196C 934.559,1183.72 898.392,1150.89 881,1097.5C 868.496,1045.84 878.996,999.506 912.5,958.5C 938.025,930.535 968.692,909.702 1004.5,896C 1039.45,882.779 1075.45,874.613 1112.5,871.5 Z"/></g>
</svg>
