<?xml version="1.0" standalone="no"?>
<!DOCTYPE svg PUBLIC "-//W3C//DTD SVG 20010904//EN"
 "http://www.w3.org/TR/2001/REC-SVG-20010904/DTD/svg10.dtd">
<svg version="1.0" xmlns="http://www.w3.org/2000/svg"
 width="2048.000000pt" height="2048.000000pt" viewBox="0 0 2048.000000 2048.000000"
 preserveAspectRatio="xMidYMid meet">

<g transform="translate(0.000000,2048.000000) scale(0.100000,-0.100000)"
fill="#000000" stroke="none">
<path d="M7174 19240 c-39 -4 -95 -13 -123 -19 -29 -6 -57 -9 -62 -6 -9 6
-140 -11 -342 -46 -314 -53 -715 -156 -1043 -268 -270 -92 -335 -117 -327
-126 5 -4 3 -5 -4 -1 -11 6 -262 -91 -401 -155 -35 -16 -65 -29 -67 -29 -19 0
-517 -249 -639 -319 -48 -28 -89 -51 -91 -51 -7 0 -266 -160 -368 -226 -138
-91 -188 -130 -179 -139 4 -5 2 -5 -5 -2 -6 4 -24 -3 -40 -16 -15 -13 -35 -28
-44 -33 -63 -35 -295 -234 -472 -404 -577 -553 -911 -1204 -968 -1880 -51
-617 138 -1249 561 -1880 51 -75 194 -265 220 -290 3 -3 27 -32 55 -65 101
-121 243 -274 319 -344 22 -20 56 -52 75 -73 46 -47 204 -185 306 -268 44 -35
86 -71 94 -78 17 -16 298 -226 361 -269 25 -17 77 -61 115 -98 98 -93 296
-279 380 -355 39 -36 75 -69 81 -75 6 -5 39 -35 74 -65 35 -30 85 -74 111 -98
26 -23 64 -56 85 -73 22 -17 41 -34 44 -37 3 -4 39 -36 80 -71 41 -34 98 -82
125 -106 28 -23 68 -58 90 -76 22 -19 60 -53 85 -76 25 -22 111 -97 191 -165
344 -291 725 -621 1084 -938 28 -25 80 -70 115 -100 35 -30 75 -66 90 -78 14
-13 52 -47 85 -75 32 -29 66 -59 75 -67 9 -8 65 -60 126 -115 60 -55 111 -102
114 -105 3 -3 30 -27 60 -55 31 -27 111 -102 179 -165 68 -63 144 -134 170
-157 53 -48 56 -39 -49 -111 -30 -20 -59 -40 -65 -44 -11 -9 -113 -85 -195
-144 -30 -23 -93 -67 -140 -99 -47 -33 -87 -62 -90 -65 -3 -3 -27 -22 -55 -41
-27 -18 -54 -38 -60 -42 -5 -4 -91 -66 -190 -138 -99 -71 -200 -145 -225 -163
-25 -18 -101 -73 -170 -122 -145 -104 -136 -97 -175 -127 -16 -13 -52 -39 -80
-57 -27 -19 -56 -40 -63 -46 -6 -7 -21 -16 -33 -19 -11 -4 -18 -13 -16 -20 3
-7 -1 -12 -8 -11 -14 1 -45 -20 -253 -172 -70 -51 -172 -125 -227 -164 -120
-87 -360 -266 -469 -351 -44 -34 -90 -69 -102 -77 -20 -13 -442 -332 -689
-521 -44 -34 -156 -123 -248 -198 -93 -75 -181 -145 -196 -156 -23 -17 -213
-174 -291 -241 -131 -112 -255 -217 -300 -255 -245 -208 -485 -469 -613 -667
-125 -194 -164 -313 -154 -472 9 -133 28 -198 105 -345 66 -127 250 -323 395
-419 311 -206 704 -336 1207 -400 174 -22 575 -39 755 -32 548 22 1143 104
1652 227 249 60 640 181 788 244 17 7 88 36 158 64 186 75 528 232 547 251 3
3 59 36 125 74 164 94 327 202 470 310 66 50 122 93 125 96 3 3 34 30 70 60
116 98 311 290 417 410 87 99 220 282 283 390 164 281 245 520 281 830 13 116
6 380 -12 465 -6 28 -12 64 -14 81 -5 46 -51 216 -86 314 -102 287 -254 554
-502 885 -66 88 -123 162 -127 165 -3 3 -44 50 -90 105 -47 55 -87 102 -90
105 -3 3 -45 50 -95 105 -49 55 -144 156 -211 225 -278 286 -312 324 -308 334
3 6 24 25 48 41 24 17 142 98 263 181 120 82 239 163 265 180 27 16 48 32 48
37 0 4 5 7 10 7 6 0 36 17 68 39 138 93 395 248 564 340 68 36 140 77 197 110
87 51 366 189 471 234 112 47 291 107 321 107 23 0 24 -20 5 -105 -17 -78 -75
-286 -85 -305 -4 -8 -22 -62 -40 -120 -17 -58 -36 -114 -41 -125 -9 -18 -66
-189 -75 -225 -2 -8 -18 -60 -35 -115 -17 -55 -32 -109 -35 -120 -2 -11 -22
-90 -44 -175 -86 -331 -125 -630 -125 -945 0 -258 17 -405 69 -596 52 -189
103 -310 193 -459 238 -392 671 -643 1191 -691 264 -24 575 38 906 181 64 27
258 123 265 131 3 3 32 20 65 38 33 19 93 56 134 82 41 27 76 49 78 49 14 0
273 193 393 294 116 97 184 161 360 336 179 179 225 229 360 395 63 77 128
156 145 176 124 148 157 192 153 211 -2 7 3 12 11 13 8 0 57 59 107 130 51 72
103 143 116 159 13 17 22 33 20 38 -1 4 2 8 7 8 11 0 261 373 261 389 0 6 4
11 8 11 4 0 18 19 30 43 26 51 52 96 77 133 10 15 33 57 52 93 20 36 47 86 61
111 13 25 43 79 65 120 22 41 44 81 50 88 30 39 248 477 319 642 108 250 131
308 153 375 48 146 58 257 28 294 -10 11 -51 37 -92 57 -66 32 -84 36 -165 39
-192 6 -196 2 -338 -330 -33 -77 -81 -189 -105 -250 -25 -60 -58 -134 -74
-164 -15 -29 -26 -58 -22 -64 3 -5 2 -8 -3 -4 -14 8 -129 -218 -119 -233 5 -9
4 -11 -3 -6 -8 5 -35 -39 -77 -125 -68 -136 -166 -311 -193 -341 -8 -10 -13
-18 -10 -18 4 0 -14 -30 -38 -67 -24 -37 -42 -74 -39 -81 2 -7 1 -11 -4 -7 -5
3 -35 -37 -67 -87 -89 -143 -317 -484 -392 -588 -69 -95 -171 -213 -283 -331
-19 -19 -104 -109 -189 -199 -235 -248 -234 -246 -365 -380 -260 -265 -397
-381 -616 -527 -210 -140 -385 -228 -579 -292 -272 -89 -571 -102 -780 -35
-105 35 -281 139 -366 218 -207 192 -260 271 -323 486 -41 135 -60 271 -68
461 -5 133 5 354 22 469 2 14 9 63 15 110 6 47 16 105 21 130 6 25 12 54 13
65 2 11 6 31 10 45 3 14 24 99 46 190 37 150 72 270 162 550 17 52 31 100 32
105 2 6 15 48 30 95 42 130 93 336 106 429 30 205 -26 349 -160 414 -72 35
-194 30 -340 -12 -63 -18 -128 -39 -145 -46 -16 -7 -50 -20 -75 -30 -133 -52
-378 -170 -555 -267 -55 -30 -136 -74 -180 -98 -104 -56 -263 -148 -297 -171
-14 -11 -28 -19 -31 -19 -8 0 -326 -199 -364 -227 -17 -13 -74 -52 -126 -86
-156 -101 -328 -219 -387 -262 -30 -23 -85 -62 -121 -87 l-67 -46 -38 36 c-22
20 -113 106 -204 191 -91 86 -206 192 -255 237 -99 89 -273 244 -320 285 -16
14 -73 64 -126 110 -52 46 -124 109 -159 139 -59 51 -124 107 -210 184 -85 75
-436 372 -540 456 -24 19 -62 52 -84 72 -23 20 -67 56 -97 80 -31 24 -80 64
-110 90 -61 54 -196 166 -259 217 -23 19 -48 40 -54 46 -6 5 -36 30 -66 55
-30 25 -71 59 -90 77 -19 17 -67 58 -107 90 -39 32 -157 132 -263 223 -106 91
-213 182 -238 204 -58 47 -268 232 -292 256 -3 3 -25 23 -50 44 -171 148 -637
605 -790 775 -47 51 -96 106 -110 121 -129 139 -333 408 -492 650 -173 264
-334 621 -397 883 -45 189 -56 283 -55 487 2 166 5 200 32 328 77 358 177 586
414 942 39 58 76 110 82 115 7 6 25 28 41 50 17 22 44 56 62 75 17 19 42 48
55 65 63 81 288 310 423 431 198 177 378 316 620 478 170 113 244 159 420 259
44 25 94 54 110 63 39 22 384 194 390 194 2 0 46 20 97 44 251 118 620 246
998 347 191 51 497 114 676 139 81 11 157 23 168 25 12 3 75 9 141 15 399 34
689 18 985 -56 112 -28 273 -105 347 -166 47 -39 132 -138 118 -138 -3 0 3
-17 13 -37 36 -73 44 -125 39 -254 -6 -152 -32 -272 -83 -386 -8 -17 -14 -34
-14 -37 0 -4 -16 -38 -35 -77 -19 -39 -32 -76 -28 -82 3 -5 2 -7 -4 -4 -6 4
-23 -17 -38 -46 -16 -29 -48 -82 -72 -120 -24 -37 -43 -71 -43 -76 0 -5 -4
-11 -8 -13 -5 -1 -37 -46 -72 -98 -35 -52 -67 -97 -71 -100 -3 -3 -28 -35 -55
-71 -98 -131 -139 -185 -169 -219 -16 -20 -43 -53 -60 -74 -35 -46 -168 -199
-268 -310 -39 -43 -80 -88 -90 -100 -10 -11 -160 -165 -333 -341 -286 -291
-418 -415 -574 -536 -30 -24 -56 -46 -58 -51 -2 -4 -9 -8 -16 -8 -7 0 -22 -11
-35 -23 -24 -27 -20 -53 11 -63 30 -9 110 5 102 18 -4 7 -2 8 4 4 13 -8 163
64 157 74 -2 4 1 7 8 7 23 0 222 147 317 233 19 17 71 64 115 103 181 163 506
483 655 646 52 57 105 114 118 127 13 13 20 29 16 36 -4 6 -3 8 3 5 6 -4 33
19 59 51 27 31 51 59 54 62 7 5 207 253 255 314 17 22 39 51 51 65 11 14 54
76 95 136 41 61 77 112 82 113 4 2 7 7 7 12 0 5 23 46 52 92 108 174 198 395
235 582 23 110 22 309 0 401 -19 76 -93 234 -129 276 -13 15 -35 41 -49 58
-37 45 -139 124 -219 171 -209 122 -544 198 -940 214 -286 12 -509 14 -576 6z
m704 -10454 c59 -56 325 -326 418 -425 104 -112 104 -111 181 -196 209 -231
424 -498 518 -644 60 -92 176 -318 220 -426 l37 -90 -7 -175 c-5 -152 -14
-255 -30 -350 -40 -236 -193 -552 -382 -785 -64 -79 -336 -354 -403 -408 -383
-306 -812 -565 -1255 -757 -66 -28 -133 -58 -150 -65 -16 -7 -61 -25 -100 -39
-38 -15 -79 -30 -90 -35 -55 -25 -392 -138 -545 -184 -629 -189 -1199 -300
-1895 -369 -151 -15 -487 -14 -594 3 -40 6 -99 17 -130 26 -31 8 -63 16 -71
18 -18 4 -89 29 -194 68 -334 122 -581 332 -656 557 -40 117 -9 229 108 399
97 141 337 400 491 531 29 25 65 55 80 68 14 13 51 44 81 70 30 26 87 74 125
107 39 34 86 74 106 90 20 17 64 53 96 80 33 28 80 66 104 85 24 19 71 58 104
85 108 90 258 209 370 295 61 46 112 87 115 90 3 3 28 22 55 41 28 18 52 37
55 40 9 10 241 187 750 569 157 118 290 218 295 222 32 26 156 115 190 137 22
14 45 31 50 37 6 6 66 51 135 99 69 49 155 112 192 140 37 27 111 81 165 119
54 39 157 114 230 168 72 54 137 98 142 98 6 0 11 4 11 8 0 5 35 33 78 62 42
30 79 57 82 60 3 3 21 17 40 30 39 27 227 164 250 183 8 7 50 37 93 67 43 30
115 82 160 115 45 33 102 74 127 90 25 17 47 32 50 35 15 16 135 100 142 100
5 0 30 -20 56 -44z"/>
<path d="M18084 10966 c-423 -52 -935 -259 -1393 -565 -144 -96 -356 -261
-474 -369 -92 -84 -337 -332 -425 -431 -73 -81 -220 -260 -252 -307 -86 -125
-182 -269 -205 -309 -17 -27 -35 -59 -42 -70 -7 -11 -15 -26 -19 -34 -4 -8
-32 -58 -62 -110 -148 -262 -330 -717 -388 -969 -8 -37 -22 -94 -30 -127 -20
-84 -50 -265 -70 -430 -28 -237 -10 -512 52 -762 32 -133 99 -294 169 -408 16
-27 37 -62 45 -76 33 -58 205 -255 262 -301 23 -18 56 -46 73 -61 54 -50 231
-155 337 -200 429 -183 881 -205 1558 -76 283 54 902 234 1028 298 59 30 99
76 119 138 14 46 15 57 2 95 -38 115 -148 158 -281 108 -29 -10 -120 -40 -203
-65 -82 -25 -177 -54 -210 -64 -33 -11 -76 -23 -95 -26 -19 -4 -39 -10 -45
-13 -5 -4 -14 -7 -20 -8 -5 -1 -73 -18 -150 -37 -178 -46 -404 -90 -570 -113
-162 -23 -526 -26 -625 -6 -36 8 -87 18 -115 24 -474 95 -840 462 -945 948
-44 201 -52 545 -15 665 18 61 18 58 3 49 -7 -4 -6 1 3 12 18 21 69 182 96
302 5 19 10 22 27 17 89 -28 274 -33 391 -11 120 23 328 91 495 161 30 13 96
40 145 60 168 70 468 222 695 352 207 120 503 317 492 328 -4 5 -2 5 4 2 6 -3
51 24 101 61 151 112 317 239 338 259 11 10 43 36 70 58 28 22 66 54 85 72 19
17 46 41 60 53 39 33 297 289 332 329 17 20 62 70 99 111 82 91 214 263 293
385 106 161 185 358 201 502 11 93 -15 190 -79 302 -47 80 -172 168 -298 210
-152 50 -378 69 -564 47z m518 -555 c3 -3 -4 -26 -16 -51 -12 -25 -37 -81 -56
-125 -34 -79 -107 -225 -134 -268 -141 -228 -204 -314 -354 -482 -133 -149
-205 -215 -563 -518 -14 -12 -48 -37 -75 -56 -27 -19 -102 -74 -167 -123 -65
-48 -121 -88 -124 -88 -17 0 -132 -93 -127 -102 5 -7 2 -8 -5 -4 -16 10 -273
-163 -264 -177 4 -6 1 -7 -6 -2 -8 4 -25 -1 -42 -14 -15 -11 -31 -21 -35 -21
-14 0 -192 -131 -256 -188 -66 -59 -219 -142 -443 -239 -44 -19 -95 -41 -114
-50 -139 -63 -393 -135 -523 -148 -60 -7 -68 -5 -68 10 0 66 102 305 232 545
53 99 153 267 175 296 12 17 23 35 23 39 0 4 14 26 30 49 17 23 75 104 130
181 105 147 183 250 228 300 15 17 70 80 124 140 137 157 342 353 502 480 462
367 999 590 1507 624 120 9 409 3 421 -8z"/>
</g>
</svg>
