<?xml version="1.0" encoding="UTF-8"?>
<!DOCTYPE svg PUBLIC "-//W3C//DTD SVG 1.1//EN" "http://www.w3.org/Graphics/SVG/1.1/DTD/svg11.dtd">
<svg xmlns="http://www.w3.org/2000/svg" version="1.1" width="2048px" height="2048px" style="shape-rendering:geometricPrecision; text-rendering:geometricPrecision; image-rendering:optimizeQuality; fill-rule:evenodd; clip-rule:evenodd" xmlns:xlink="http://www.w3.org/1999/xlink">
<g><path style="opacity:1" fill="#202020" d="M -0.5,-0.5 C 682.167,-0.5 1364.83,-0.5 2047.5,-0.5C 2047.5,682.167 2047.5,1364.83 2047.5,2047.5C 1735.83,2047.5 1424.17,2047.5 1112.5,2047.5C 1136.68,2044.6 1161.02,2041.77 1185.5,2039C 1197.94,2036.37 1210.27,2033.54 1222.5,2030.5C 1241.62,2027.48 1260.62,2023.81 1279.5,2019.5C 1449.76,1973.37 1599.43,1890.2 1728.5,1770C 1859.28,1643.9 1951.12,1494.06 2004,1320.5C 2019.13,1268.03 2029.96,1214.7 2036.5,1160.5C 2041.41,1134.92 2044.25,1108.92 2045,1082.5C 2045.67,1057.17 2045.67,1031.83 2045,1006.5C 2044.74,992.643 2043.9,978.976 2042.5,965.5C 2027.29,759.006 1956.79,574.34 1831,411.5C 1734.37,290.042 1617.53,195.208 1480.5,127C 1434.82,104.88 1387.82,85.8803 1339.5,70C 1324.15,66.1846 1308.82,62.1846 1293.5,58C 1291.62,56.8147 1289.62,55.8147 1287.5,55C 1268.6,50.1914 1249.6,45.8581 1230.5,42C 1211.96,39.7435 1193.63,36.7435 1175.5,33C 1158.44,31.4089 1141.44,29.5756 1124.5,27.5C 1122.71,26.6909 1120.71,26.1909 1118.5,26C 1081.06,22.6845 1043.72,21.8512 1006.5,23.5C 971.358,23.512 936.358,25.6787 901.5,30C 892.875,32.0541 886.375,36.8875 882,44.5C 670.974,71.283 487.474,156.116 331.5,299C 171.648,452.184 70.4809,637.684 28,855.5C 19.0625,903.437 13.8959,951.77 12.5,1000.5C 11.3366,1026 11.1699,1051.66 12,1077.5C 12.4691,1095.74 13.9691,1113.74 16.5,1131.5C 25.0803,1233.39 48.9137,1331.39 88,1425.5C 92.2246,1436.15 97.2246,1446.49 103,1456.5C 188.771,1644.27 320.271,1793.11 497.5,1903C 622.108,1977.46 756.441,2024.13 900.5,2043C 916.974,2044.62 933.308,2046.12 949.5,2047.5C 632.833,2047.5 316.167,2047.5 -0.5,2047.5C -0.5,1364.83 -0.5,682.167 -0.5,-0.5 Z"/></g>
<g><path style="opacity:1" fill="#101010" d="M 1006.5,23.5 C 1043.72,21.8512 1081.06,22.6845 1118.5,26C 1120.71,26.1909 1122.71,26.6909 1124.5,27.5C 1085.24,24.1701 1045.91,22.8367 1006.5,23.5 Z"/></g>
<g><path style="opacity:1" fill="#000000" d="M 1006.5,23.5 C 1045.91,22.8367 1085.24,24.1701 1124.5,27.5C 1141.44,29.5756 1158.44,31.4089 1175.5,33C 1193.63,36.7435 1211.96,39.7435 1230.5,42C 1249.6,45.8581 1268.6,50.1914 1287.5,55C 1289.62,55.8147 1291.62,56.8147 1293.5,58C 1308.82,62.1846 1324.15,66.1846 1339.5,70C 1387.82,85.8803 1434.82,104.88 1480.5,127C 1617.53,195.208 1734.37,290.042 1831,411.5C 1956.79,574.34 2027.29,759.006 2042.5,965.5C 2044.05,1002.15 2044.55,1038.82 2044,1075.5C 2042,1103.85 2039.5,1132.18 2036.5,1160.5C 2029.96,1214.7 2019.13,1268.03 2004,1320.5C 1951.12,1494.06 1859.28,1643.9 1728.5,1770C 1599.43,1890.2 1449.76,1973.37 1279.5,2019.5C 1260.62,2023.81 1241.62,2027.48 1222.5,2030.5C 1180.75,2038.3 1138.75,2043.97 1096.5,2047.5C 1047.5,2047.5 998.5,2047.5 949.5,2047.5C 933.308,2046.12 916.974,2044.62 900.5,2043C 756.441,2024.13 622.108,1977.46 497.5,1903C 320.271,1793.11 188.771,1644.27 103,1456.5C 97.2246,1446.49 92.2246,1436.15 88,1425.5C 48.9137,1331.39 25.0803,1233.39 16.5,1131.5C 13.0818,1087.9 11.7485,1044.24 12.5,1000.5C 13.8959,951.77 19.0625,903.437 28,855.5C 70.4809,637.684 171.648,452.184 331.5,299C 487.474,156.116 670.974,71.283 882,44.5C 886.375,36.8875 892.875,32.0541 901.5,30C 936.358,25.6787 971.358,23.512 1006.5,23.5 Z"/></g>
<g><path style="opacity:1" fill="#2a2a2a" d="M 1036.5,162.5 C 1090.24,162.256 1143.57,166.756 1196.5,176C 1198.39,177.079 1198.73,178.413 1197.5,180C 930.078,140.088 693.078,206.421 486.5,379C 307.111,536.243 203.278,734.076 175,972.5C 157.903,1151.69 193.236,1319.69 281,1476.5C 301.32,1511.48 323.987,1544.81 349,1576.5C 349.688,1577.33 349.521,1578 348.5,1578.5C 274.902,1488.64 223.402,1386.98 194,1273.5C 136.073,1026.4 173.739,795.068 307,579.5C 425.198,396.421 588.031,270.587 795.5,202C 874.163,177.778 954.496,164.611 1036.5,162.5 Z"/></g>
<g><path style="opacity:1" fill="#2a2a2a" d="M 1088.5,414.5 C 1170.77,410.984 1248.43,428.15 1321.5,466C 1457.32,540.498 1552.49,650.331 1607,795.5C 1624.95,844.633 1634.95,895.3 1637,947.5C 1618.93,781.547 1546.1,644.38 1418.5,536C 1360.7,488.091 1295.36,453.758 1222.5,433C 1165.84,417.579 1108.67,415.079 1051,425.5C 1047.64,423.524 1047.81,421.69 1051.5,420C 1063.97,418.1 1076.3,416.267 1088.5,414.5 Z"/></g>
<g><path style="opacity:1" fill="#48729c" d="M 1356.5,970.5 C 1356.28,975.1 1356.95,979.433 1358.5,983.5C 1362.12,1010.76 1362.46,1038.09 1359.5,1065.5C 1358.03,1069.92 1357.36,1074.59 1357.5,1079.5C 1337.8,1186.77 1280.8,1267.6 1186.5,1322C 1106.38,1363.96 1022.71,1373.13 935.5,1349.5C 933.485,1348.08 931.152,1347.41 928.5,1347.5C 832.955,1316.46 763.789,1255.46 721,1164.5C 716.335,1154 712.169,1143.34 708.5,1132.5C 707.538,1128.61 706.204,1124.94 704.5,1121.5C 700.275,1106.37 696.941,1091.04 694.5,1075.5C 694.192,1071.64 693.525,1067.97 692.5,1064.5C 692.5,1063.17 692.5,1061.83 692.5,1060.5C 691.115,1044.53 690.448,1028.53 690.5,1012.5C 690.231,1008.07 690.564,1003.74 691.5,999.5C 692.889,994.731 693.556,989.731 693.5,984.5C 694.444,969.063 697.444,954.063 702.5,939.5C 704.277,936.495 705.277,933.162 705.5,929.5C 724.276,870.236 756.943,820.07 803.5,779C 816.148,769.349 828.481,759.349 840.5,749C 878.451,720.197 921.117,702.697 968.5,696.5C 973.414,696.638 978.081,695.972 982.5,694.5C 1107.37,681.161 1209.87,722.494 1290,818.5C 1325.52,863.216 1347.69,913.882 1356.5,970.5 Z"/></g>
<g><path style="opacity:1" fill="#324e6c" d="M 982.5,694.5 C 978.081,695.972 973.414,696.638 968.5,696.5C 972.919,695.028 977.586,694.362 982.5,694.5 Z"/></g>
<g><path style="opacity:1" fill="#2a2a2a" d="M 1853.5,734.5 C 1854.5,734.5 1855.5,734.5 1856.5,734.5C 1904.54,942.837 1894.04,1148.17 1825,1350.5C 1778.67,1482.08 1706.5,1596.92 1608.5,1695C 1535.99,1765.62 1451.99,1818.62 1356.5,1854C 1281.77,1880.49 1204.77,1892.82 1125.5,1891C 1123.47,1889.6 1123.14,1887.94 1124.5,1886C 1269.02,1887.15 1400.02,1846.15 1517.5,1763C 1620.27,1687.58 1701.44,1593.75 1761,1481.5C 1832.47,1344.98 1872.13,1199.64 1880,1045.5C 1885.39,940.61 1876.56,836.944 1853.5,734.5 Z"/></g>
<g><path style="opacity:1" fill="#2a435c" d="M 705.5,929.5 C 705.277,933.162 704.277,936.495 702.5,939.5C 702.723,935.838 703.723,932.505 705.5,929.5 Z"/></g>
<g><path style="opacity:1" fill="#2b2b2b" d="M 460.5,937.5 C 461.497,937.47 462.164,937.97 462.5,939C 422.583,1054.37 420.083,1170.54 455,1287.5C 506.889,1443.39 607.389,1555.89 756.5,1625C 888.985,1682.46 1024.65,1691.13 1163.5,1651C 1303.61,1607.17 1413.61,1524 1493.5,1401.5C 1494.83,1402.17 1495.83,1403.17 1496.5,1404.5C 1407.82,1542.57 1283.15,1630.41 1122.5,1668C 974.557,1699.01 834.557,1678.01 702.5,1605C 567.234,1524.74 479.734,1408.24 440,1255.5C 414.997,1147.37 421.831,1041.37 460.5,937.5 Z"/></g>
<g><path style="opacity:1" fill="#324f6c" d="M 1356.5,970.5 C 1358.05,974.567 1358.72,978.9 1358.5,983.5C 1356.95,979.433 1356.28,975.1 1356.5,970.5 Z"/></g>
<g><path style="opacity:1" fill="#304d69" d="M 693.5,984.5 C 693.556,989.731 692.889,994.731 691.5,999.5C 691.444,994.269 692.111,989.269 693.5,984.5 Z"/></g>
<g><path style="opacity:1" fill="#162330" d="M 690.5,1012.5 C 690.448,1028.53 691.115,1044.53 692.5,1060.5C 690.882,1053.74 690.048,1046.74 690,1039.5C 689.176,1030.32 689.343,1021.32 690.5,1012.5 Z"/></g>
<g><path style="opacity:1" fill="#161616" d="M 2042.5,965.5 C 2043.9,978.976 2044.74,992.643 2045,1006.5C 2045.67,1031.83 2045.67,1057.17 2045,1082.5C 2044.25,1108.92 2041.41,1134.92 2036.5,1160.5C 2039.5,1132.18 2042,1103.85 2044,1075.5C 2044.55,1038.82 2044.05,1002.15 2042.5,965.5 Z"/></g>
<g><path style="opacity:1" fill="#192735" d="M 692.5,1064.5 C 693.525,1067.97 694.192,1071.64 694.5,1075.5C 692.783,1072.16 692.116,1068.49 692.5,1064.5 Z"/></g>
<g><path style="opacity:1" fill="#151e29" d="M 1359.5,1065.5 C 1359.77,1070.43 1359.1,1075.1 1357.5,1079.5C 1357.36,1074.59 1358.03,1069.92 1359.5,1065.5 Z"/></g>
<g><path style="opacity:1" fill="#101010" d="M 12.5,1000.5 C 11.7485,1044.24 13.0818,1087.9 16.5,1131.5C 13.9691,1113.74 12.4691,1095.74 12,1077.5C 11.1699,1051.66 11.3366,1026 12.5,1000.5 Z"/></g>
<g><path style="opacity:1" fill="#1a2836" d="M 704.5,1121.5 C 706.204,1124.94 707.538,1128.61 708.5,1132.5C 706.01,1129.37 704.677,1125.71 704.5,1121.5 Z"/></g>
<g><path style="opacity:1" fill="#2e4963" d="M 928.5,1347.5 C 931.152,1347.41 933.485,1348.08 935.5,1349.5C 932.848,1349.59 930.515,1348.92 928.5,1347.5 Z"/></g>
<g><path style="opacity:1" fill="#131313" d="M 1222.5,2030.5 C 1210.27,2033.54 1197.94,2036.37 1185.5,2039C 1161.02,2041.77 1136.68,2044.6 1112.5,2047.5C 1107.17,2047.5 1101.83,2047.5 1096.5,2047.5C 1138.75,2043.97 1180.75,2038.3 1222.5,2030.5 Z"/></g>
</svg>
