<?xml version="1.0" encoding="UTF-8"?>
<!DOCTYPE svg PUBLIC "-//W3C//DTD SVG 1.1//EN" "http://www.w3.org/Graphics/SVG/1.1/DTD/svg11.dtd">
<svg xmlns="http://www.w3.org/2000/svg" version="1.1" width="1400px" height="80px" style="shape-rendering:geometricPrecision; text-rendering:geometricPrecision; image-rendering:optimizeQuality; fill-rule:evenodd; clip-rule:evenodd" xmlns:xlink="http://www.w3.org/1999/xlink">
<g><path style="opacity:1" fill="#fefefe" d="M -0.5,-0.5 C 20.8333,-0.5 42.1667,-0.5 63.5,-0.5C 62.8029,15.2623 68.4696,28.0957 80.5,38C 92.0485,43.737 102.215,41.9037 111,32.5C 116.418,25.0055 115.585,18.5055 108.5,13C 101.518,11.297 96.0183,13.4637 92,19.5C 89.2963,26.1159 91.463,29.6159 98.5,30C 99.4651,27.5261 99.6317,25.0261 99,22.5C 101.128,19.5422 103.794,18.8756 107,20.5C 107.105,27.0951 103.939,31.5951 97.5,34C 94.1667,34.6667 90.8333,34.6667 87.5,34C 78.4817,29.1491 72.9817,21.6491 71,11.5C 70.1721,7.53404 69.6721,3.53404 69.5,-0.5C 447.167,-0.5 824.833,-0.5 1202.5,-0.5C 1193.51,16.041 1197.17,28.8743 1213.5,38C 1223.36,40.5631 1232.69,39.2298 1241.5,34C 1248.04,29.4319 1250.54,23.2652 1249,15.5C 1247.48,13.652 1245.65,12.152 1243.5,11C 1234.5,8.59857 1227.33,11.0986 1222,18.5C 1220.58,26.5872 1223.75,29.5872 1231.5,27.5C 1233.18,24.2583 1232.18,22.2583 1228.5,21.5C 1232.07,17.8348 1236.41,16.6681 1241.5,18C 1242.75,20.2096 1242.58,22.3763 1241,24.5C 1232.29,33.172 1222.46,34.672 1211.5,29C 1205.56,24.189 1203.4,18.0223 1205,10.5C 1206.32,6.52774 1208.15,2.86107 1210.5,-0.5C 1273.5,-0.5 1336.5,-0.5 1399.5,-0.5C 1399.5,26.1667 1399.5,52.8333 1399.5,79.5C 1152.83,79.5 906.167,79.5 659.5,79.5C 661.522,77.5807 661.856,75.4141 660.5,73C 656.781,72.6116 653.114,71.9449 649.5,71C 644.076,68.983 642.242,65.1497 644,59.5C 647.803,52.7071 652.637,46.8738 658.5,42C 658.415,40.8926 658.081,39.8926 657.5,39C 640.568,36.8687 625.568,41.202 612.5,52C 603.935,62.066 594.602,71.2326 584.5,79.5C 508.5,79.5 432.5,79.5 356.5,79.5C 362.274,72.7343 361.607,66.5677 354.5,61C 344.245,56.3671 334.245,57.0338 324.5,63C 317.598,67.0672 312.265,72.5672 308.5,79.5C 300.167,79.5 291.833,79.5 283.5,79.5C 289.045,74.0793 293.878,68.0793 298,61.5C 300.039,59.1255 302.372,57.1255 305,55.5C 305.398,50.3547 303.231,49.188 298.5,52C 293.402,57.0407 288.902,62.5407 285,68.5C 281.271,72.3981 277.438,76.0648 273.5,79.5C 182.167,79.5 90.8333,79.5 -0.5,79.5C -0.5,52.8333 -0.5,26.1667 -0.5,-0.5 Z"/></g>
<g><path style="opacity:1" fill="#5074a4" d="M 63.5,-0.5 C 65.5,-0.5 67.5,-0.5 69.5,-0.5C 69.6721,3.53404 70.1721,7.53404 71,11.5C 72.9817,21.6491 78.4817,29.1491 87.5,34C 90.8333,34.6667 94.1667,34.6667 97.5,34C 103.939,31.5951 107.105,27.0951 107,20.5C 103.794,18.8756 101.128,19.5422 99,22.5C 99.6317,25.0261 99.4651,27.5261 98.5,30C 91.463,29.6159 89.2963,26.1159 92,19.5C 96.0183,13.4637 101.518,11.297 108.5,13C 115.585,18.5055 116.418,25.0055 111,32.5C 102.215,41.9037 92.0485,43.737 80.5,38C 68.4696,28.0957 62.8029,15.2623 63.5,-0.5 Z"/></g>
<g><path style="opacity:1" fill="#5174a5" d="M 1202.5,-0.5 C 1205.17,-0.5 1207.83,-0.5 1210.5,-0.5C 1208.15,2.86107 1206.32,6.52774 1205,10.5C 1203.4,18.0223 1205.56,24.189 1211.5,29C 1222.46,34.672 1232.29,33.172 1241,24.5C 1242.58,22.3763 1242.75,20.2096 1241.5,18C 1236.41,16.6681 1232.07,17.8348 1228.5,21.5C 1232.18,22.2583 1233.18,24.2583 1231.5,27.5C 1223.75,29.5872 1220.58,26.5872 1222,18.5C 1227.33,11.0986 1234.5,8.59857 1243.5,11C 1245.65,12.152 1247.48,13.652 1249,15.5C 1250.54,23.2652 1248.04,29.4319 1241.5,34C 1232.69,39.2298 1223.36,40.5631 1213.5,38C 1197.17,28.8743 1193.51,16.041 1202.5,-0.5 Z"/></g>
<g><path style="opacity:1" fill="#5376a6" d="M 152.5,2.5 C 156.323,2.16689 157.823,3.83356 157,7.5C 150.797,10.6969 145.464,15.0302 141,20.5C 139.908,23.0444 139.241,25.7111 139,28.5C 138.163,30.0074 136.996,30.5074 135.5,30C 133.643,28.8176 132.643,27.151 132.5,25C 133.966,19.0673 136.966,14.0673 141.5,10C 145.233,7.47716 148.899,4.97716 152.5,2.5 Z"/></g>
<g><path style="opacity:1" fill="#597aa8" d="M 1260.5,2.5 C 1264.78,2.63969 1267.11,4.97303 1267.5,9.5C 1266.01,13.0753 1263.84,13.4086 1261,10.5C 1259.49,7.83631 1259.32,5.16964 1260.5,2.5 Z"/></g>
<g><path style="opacity:1" fill="#5376a6" d="M 1264.5,17.5 C 1268.24,16.7415 1269.91,18.2415 1269.5,22C 1267.63,32.5298 1261.96,40.1965 1252.5,45C 1247.9,46.5833 1246.07,45.0833 1247,40.5C 1257.1,36.2193 1262.93,28.5526 1264.5,17.5 Z"/></g>
<g><path style="opacity:1" fill="#5174a5" d="M 1388.5,26.5 C 1392.47,27.0755 1393.47,29.2421 1391.5,33C 1386.16,37.1686 1380.16,40.0019 1373.5,41.5C 1370.48,40.6198 1369.82,38.7864 1371.5,36C 1377.84,33.8334 1383.51,30.6667 1388.5,26.5 Z"/></g>
<g><path style="opacity:1" fill="#5275a5" d="M 1169.5,26.5 C 1173.19,26.6952 1175.03,28.6952 1175,32.5C 1180.25,37.9515 1186.75,40.6182 1194.5,40.5C 1197.14,39.9049 1199.81,39.5715 1202.5,39.5C 1202.9,42.0444 1202.23,44.2111 1200.5,46C 1188.53,48.3032 1178.36,45.1366 1170,36.5C 1167.14,33.1468 1166.97,29.8135 1169.5,26.5 Z"/></g>
<g><path style="opacity:1" fill="#5275a5" d="M 118.5,35.5 C 123.068,35.0826 124.568,37.0826 123,41.5C 119.14,45.3604 115.306,49.1937 111.5,53C 103.509,58.1453 96.0086,57.6453 89,51.5C 88.3333,49.8333 88.3333,48.1667 89,46.5C 89.7247,45.9415 90.5581,45.6082 91.5,45.5C 93.6506,48.115 96.4839,49.7816 100,50.5C 108.1,47.9014 114.267,42.9014 118.5,35.5 Z"/></g>
<g><path style="opacity:1" fill="#5074a4" d="M 659.5,79.5 C 658.167,79.5 656.833,79.5 655.5,79.5C 641.227,79.0564 635.061,71.723 637,57.5C 639.127,53.4106 641.627,49.5772 644.5,46C 634.816,46.5634 626.149,49.8968 618.5,56C 611.044,63.7703 603.71,71.6037 596.5,79.5C 592.5,79.5 588.5,79.5 584.5,79.5C 594.602,71.2326 603.935,62.066 612.5,52C 625.568,41.202 640.568,36.8687 657.5,39C 658.081,39.8926 658.415,40.8926 658.5,42C 652.637,46.8738 647.803,52.7071 644,59.5C 642.242,65.1497 644.076,68.983 649.5,71C 653.114,71.9449 656.781,72.6116 660.5,73C 661.856,75.4141 661.522,77.5807 659.5,79.5 Z"/></g>
<g><path style="opacity:1" fill="#fbfcfd" d="M 655.5,79.5 C 635.833,79.5 616.167,79.5 596.5,79.5C 603.71,71.6037 611.044,63.7703 618.5,56C 626.149,49.8968 634.816,46.5634 644.5,46C 641.627,49.5772 639.127,53.4106 637,57.5C 635.061,71.723 641.227,79.0564 655.5,79.5 Z"/></g>
<g><path style="opacity:1" fill="#5375a5" d="M 1346.5,47.5 C 1351.3,49.0892 1356.3,50.0892 1361.5,50.5C 1366.17,49.6521 1370.83,49.1521 1375.5,49C 1376.93,51.2672 1376.6,53.2672 1374.5,55C 1365.85,58.2679 1357.35,58.1013 1349,54.5C 1342.5,60.3333 1336,66.1667 1329.5,72C 1324.77,74.812 1322.6,73.6453 1323,68.5C 1331.33,62.0053 1339.16,55.0053 1346.5,47.5 Z"/></g>
<g><path style="opacity:1" fill="#5375a5" d="M 344.5,48.5 C 358.07,49.5431 367.904,56.2097 374,68.5C 375.023,73.3445 373.189,75.5111 368.5,75C 364.743,63.4129 356.743,56.4129 344.5,54C 343.248,52.1722 343.248,50.3388 344.5,48.5 Z"/></g>
<g><path style="opacity:1" fill="#5174a5" d="M 283.5,79.5 C 280.167,79.5 276.833,79.5 273.5,79.5C 277.438,76.0648 281.271,72.3981 285,68.5C 288.902,62.5407 293.402,57.0407 298.5,52C 303.231,49.188 305.398,50.3547 305,55.5C 302.372,57.1255 300.039,59.1255 298,61.5C 293.878,68.0793 289.045,74.0793 283.5,79.5 Z"/></g>
<g><path style="opacity:1" fill="#5073a4" d="M 673.5,52.5 C 675.144,52.2865 676.644,52.6198 678,53.5C 678.333,55.5 678.667,57.5 679,59.5C 685.271,63.1628 691.771,63.4962 698.5,60.5C 701.246,61.0963 702.08,62.7629 701,65.5C 699.829,66.8932 698.329,67.7265 696.5,68C 691.5,68.6667 686.5,68.6667 681.5,68C 673.382,65.5966 670.715,60.43 673.5,52.5 Z"/></g>
<g><path style="opacity:1" fill="#5174a5" d="M 356.5,79.5 C 352.5,79.5 348.5,79.5 344.5,79.5C 347.91,77.1233 350.91,74.2899 353.5,71C 350.972,66.6495 347.139,64.4828 342,64.5C 331.083,65.6206 322.583,70.6206 316.5,79.5C 313.833,79.5 311.167,79.5 308.5,79.5C 312.265,72.5672 317.598,67.0672 324.5,63C 334.245,57.0338 344.245,56.3671 354.5,61C 361.607,66.5677 362.274,72.7343 356.5,79.5 Z"/></g>
<g><path style="opacity:1" fill="#5175a5" d="M 914.5,57.5 C 918.677,56.8416 920.177,58.5082 919,62.5C 914.564,65.3026 910.397,68.4693 906.5,72C 901.769,74.812 899.602,73.6453 900,68.5C 904.991,64.9343 909.825,61.2677 914.5,57.5 Z"/></g>
<g><path style="opacity:1" fill="#5073a4" d="M 880.5,61.5 C 883.261,60.9147 884.927,61.9147 885.5,64.5C 885.06,67.2138 883.726,69.3805 881.5,71C 876.144,73.6725 870.477,75.3391 864.5,76C 852.833,76.6667 841.167,76.6667 829.5,76C 802.977,71.8613 776.311,70.1946 749.5,71C 745.73,71.8678 742.064,73.0345 738.5,74.5C 735.483,73.6198 734.816,71.7864 736.5,69C 745.385,65.1289 754.718,63.2956 764.5,63.5C 792.712,65.2829 820.879,67.6162 849,70.5C 858.874,70.4788 868.374,68.6455 877.5,65C 878.71,63.9609 879.71,62.7942 880.5,61.5 Z"/></g>
<g><path style="opacity:1" fill="#fafbfc" d="M 344.5,79.5 C 335.167,79.5 325.833,79.5 316.5,79.5C 322.583,70.6206 331.083,65.6206 342,64.5C 347.139,64.4828 350.972,66.6495 353.5,71C 350.91,74.2899 347.91,77.1233 344.5,79.5 Z"/></g>
<g><path style="opacity:1" fill="#5174a5" d="M 158.5,70.5 C 177.319,72.9515 196.152,72.9515 215,70.5C 217.892,70.0657 219.725,71.2324 220.5,74C 220.18,75.6532 219.18,76.6532 217.5,77C 197.835,78.9816 178.168,78.9816 158.5,77C 155.939,74.8441 155.939,72.6774 158.5,70.5 Z"/></g>
</svg>
