<?xml version="1.0" encoding="UTF-8"?>
<!DOCTYPE svg PUBLIC "-//W3C//DTD SVG 1.1//EN" "http://www.w3.org/Graphics/SVG/1.1/DTD/svg11.dtd">
<svg xmlns="http://www.w3.org/2000/svg" version="1.1" width="2160px" height="1620px" style="shape-rendering:geometricPrecision; text-rendering:geometricPrecision; image-rendering:optimizeQuality; fill-rule:evenodd; clip-rule:evenodd" xmlns:xlink="http://www.w3.org/1999/xlink">
<g><path style="opacity:0.916" fill="#86abd3" d="M 934.5,777.5 C 939.511,777.334 944.511,777.501 949.5,778C 950.833,778.667 952.167,779.333 953.5,780C 954.833,780.667 954.833,781.333 953.5,782C 946.14,782.383 938.807,783.05 931.5,784C 922.239,787.198 912.906,790.198 903.5,793C 892.5,795 881.5,795 870.5,793C 869.159,791.174 869.659,790.007 872,789.5C 882.565,790.879 893.065,790.379 903.5,788C 913.984,784.562 924.317,781.062 934.5,777.5 Z"/></g>
<g><path style="opacity:0.916" fill="#86acd4" d="M 799.5,792.5 C 806.973,792.139 814.306,792.972 821.5,795C 830.897,798.532 839.897,802.865 848.5,808C 861.933,813.474 875.6,813.974 889.5,809.5C 890.5,809.833 891.5,810.167 892.5,810.5C 876.418,817.245 860.418,817.078 844.5,810C 832.909,801.914 820.076,797.414 806,796.5C 783.865,796.977 770.532,807.977 766,829.5C 765.75,850.922 775.584,857.756 795.5,850C 803.692,842.759 806.192,833.926 803,823.5C 797.196,817.561 793.029,818.561 790.5,826.5C 792.127,829.81 793.793,833.144 795.5,836.5C 795,836.833 794.5,837.167 794,837.5C 786.871,833.236 784.871,827.236 788,819.5C 795.612,812.222 801.946,813.222 807,822.5C 811.545,840.602 805.045,852.436 787.5,858C 769.865,858.867 761.198,850.367 761.5,832.5C 762.176,814.655 770.842,802.489 787.5,796C 791.543,794.509 795.543,793.342 799.5,792.5 Z"/></g>
<g><path style="opacity:0.931" fill="#87acd4" d="M 1000.5,793.5 C 1019.77,792.973 1035.77,799.806 1048.5,814C 1047.97,814.692 1047.31,815.192 1046.5,815.5C 1037.12,809.81 1027.45,804.643 1017.5,800C 1011.65,797.872 1005.65,796.372 999.5,795.5C 999.863,794.817 1000.2,794.15 1000.5,793.5 Z"/></g>
<g><path style="opacity:0.912" fill="#86abd3" d="M 934.5,803.5 C 954.024,802.865 973.024,805.699 991.5,812C 994.87,813.346 997.87,815.179 1000.5,817.5C 1000.19,818.308 999.692,818.975 999,819.5C 971.157,807.999 942.324,804.666 912.5,809.5C 908.715,808.291 908.715,807.291 912.5,806.5C 919.981,805.493 927.314,804.493 934.5,803.5 Z"/></g>
<g><path style="opacity:0.913" fill="#86abd3" d="M 735.5,829.5 C 740.179,829.334 744.845,829.501 749.5,830C 750.624,830.249 751.624,830.749 752.5,831.5C 738.912,831.465 726.079,834.465 714,840.5C 713.5,840.167 713,839.833 712.5,839.5C 719.541,834.602 727.207,831.269 735.5,829.5 Z"/></g>
<g><path style="opacity:0.926" fill="#86acd4" d="M 732.5,845.5 C 738.262,845.149 743.928,845.649 749.5,847C 752.443,849.147 753.276,851.647 752,854.5C 749.506,850.449 745.839,848.449 741,848.5C 714.603,853.397 699.103,869.064 694.5,895.5C 695.781,908.281 702.781,913.781 715.5,912C 728.527,906.11 733.027,896.277 729,882.5C 723.57,874.455 717.57,873.788 711,880.5C 709.627,882.695 709.294,885.029 710,887.5C 713.882,890.237 718.049,892.403 722.5,894C 710.081,897.193 704.581,892.36 706,879.5C 710.717,872.15 717.217,869.983 725.5,873C 734.577,880.122 737.411,889.289 734,900.5C 727.787,914.355 717.287,919.855 702.5,917C 695.744,913.911 691.577,908.745 690,901.5C 688.679,883.303 695.179,868.469 709.5,857C 716.701,852.066 724.368,848.233 732.5,845.5 Z"/></g>
<g><path style="opacity:0.912" fill="#88add5" d="M 391.5,969.5 C 409.621,969.964 421.788,978.631 428,995.5C 428.667,1001.17 428.667,1006.83 428,1012.5C 422.292,1019.48 420.626,1018.48 423,1009.5C 424.884,996.81 420.717,986.644 410.5,979C 404.237,975.413 397.571,972.913 390.5,971.5C 390.863,970.817 391.196,970.15 391.5,969.5 Z"/></g>
<g><path style="opacity:0.919" fill="#87acd3" d="M 379.5,988.5 C 388.301,987.098 396.135,989.098 403,994.5C 411.659,1010.2 407.326,1020.2 390,1024.5C 381.985,1021.78 380.485,1016.95 385.5,1010C 386.448,1009.52 387.448,1009.35 388.5,1009.5C 387.713,1020.53 391.213,1021.53 399,1012.5C 402.462,1005.86 400.962,1000.36 394.5,996C 381.006,991.276 370.173,994.776 362,1006.5C 360.626,1008.82 360.293,1011.16 361,1013.5C 359.853,1014.46 358.853,1014.12 358,1012.5C 357.348,1009.41 357.682,1006.41 359,1003.5C 363.824,995.679 370.658,990.679 379.5,988.5 Z"/></g>
<g><path style="opacity:0.91" fill="#85aad3" d="M 335.5,998.5 C 343.084,997.918 347.084,1001.42 347.5,1009C 347.445,1013.98 345.111,1017.14 340.5,1018.5C 339.833,1018.17 339.167,1017.83 338.5,1017.5C 340.111,1014.61 341.444,1011.61 342.5,1008.5C 342.167,1005.5 340.5,1003.83 337.5,1003.5C 326.924,1007.7 323.091,1015.37 326,1026.5C 327.06,1031.36 329.894,1034.36 334.5,1035.5C 334.5,1036.5 334.5,1037.5 334.5,1038.5C 330.311,1038.82 327.145,1037.15 325,1033.5C 319,1024.17 319,1014.83 325,1005.5C 328.043,1002.25 331.543,999.913 335.5,998.5 Z"/></g>
<g><path style="opacity:0.909" fill="#86add5" d="M 28.5,1010.5 C 33.974,1029.79 42.474,1047.79 54,1064.5C 54.4828,1065.45 54.6495,1066.45 54.5,1067.5C 51.3864,1066.91 48.8864,1065.24 47,1062.5C 38.476,1049.78 31.8094,1036.12 27,1021.5C 26.013,1017.53 26.513,1013.86 28.5,1010.5 Z"/></g>
<g><path style="opacity:0.918" fill="#86acd4" d="M 361.5,1028.5 C 380.173,1026.58 393.673,1033.92 402,1050.5C 405.473,1072.87 395.973,1085.87 373.5,1089.5C 361.416,1087.33 356.916,1080.33 360,1068.5C 361.2,1064.79 363.7,1062.79 367.5,1062.5C 366.667,1066.35 365.667,1070.18 364.5,1074C 366.405,1081.29 371.072,1083.96 378.5,1082C 393.29,1075.59 398.457,1064.76 394,1049.5C 382.46,1033.41 368.293,1030.24 351.5,1040C 338.75,1052.14 333.917,1066.97 337,1084.5C 338.762,1092.96 341.596,1100.96 345.5,1108.5C 343.278,1108.82 341.444,1108.16 340,1106.5C 330.416,1088.39 329.083,1069.73 336,1050.5C 341.648,1039.67 350.148,1032.34 361.5,1028.5 Z"/></g>
<g><path style="opacity:0.912" fill="#85acd4" d="M 317.5,1053.5 C 318.5,1053.5 319.5,1053.5 320.5,1053.5C 321.192,1060.94 322.526,1068.27 324.5,1075.5C 324.286,1079.14 323.119,1079.48 321,1076.5C 318.345,1069.06 317.178,1061.39 317.5,1053.5 Z"/></g>
<g><path style="opacity:0.901" fill="#86acd4" d="M 65.5,1093.5 C 67.5273,1093.34 69.5273,1093.5 71.5,1094C 72.8333,1095.33 72.8333,1096.67 71.5,1098C 66.1022,1098.47 61.1022,1100.13 56.5,1103C 48.0333,1109.46 39.0333,1115.12 29.5,1120C 27.4213,1120.81 25.4213,1120.64 23.5,1119.5C 35.1966,1112.65 46.53,1105.15 57.5,1097C 60.3093,1095.91 62.976,1094.74 65.5,1093.5 Z"/></g>
<g><path style="opacity:0.918" fill="#87abd3" d="M 545.5,1104.5 C 563.511,1103.09 578.011,1109.43 589,1123.5C 590.289,1126.35 590.789,1129.35 590.5,1132.5C 588.396,1132.8 586.396,1132.47 584.5,1131.5C 571.699,1111.45 554.032,1105.62 531.5,1114C 515.901,1121.04 503.734,1131.87 495,1146.5C 491.105,1154.08 489.771,1162.08 491,1170.5C 491.36,1172.42 492.194,1174.09 493.5,1175.5C 492.635,1176.58 491.635,1176.75 490.5,1176C 488.683,1174.2 487.516,1172.03 487,1169.5C 485.735,1154.63 490.068,1141.63 500,1130.5C 512.204,1116.49 527.371,1107.82 545.5,1104.5 Z"/></g>
<g><path style="opacity:0.919" fill="#88add4" d="M 915.5,1113.5 C 923.419,1114.23 931.086,1116.06 938.5,1119C 941.916,1120.25 944.583,1122.42 946.5,1125.5C 944.926,1126.63 943.259,1126.8 941.5,1126C 933.117,1121.97 924.45,1118.8 915.5,1116.5C 915.5,1115.5 915.5,1114.5 915.5,1113.5 Z"/></g>
<g><path style="opacity:0.925" fill="#86acd4" d="M -0.5,1164.5 C -0.5,1163.17 -0.5,1161.83 -0.5,1160.5C 5.41891,1158.21 11.0856,1155.37 16.5,1152C 29.2802,1141.89 42.6136,1132.55 56.5,1124C 73.2726,1114.47 89.9393,1114.8 106.5,1125C 112.216,1130.77 115.216,1137.77 115.5,1146C 115.42,1166.74 105.254,1178.9 85,1182.5C 70.2363,1180.62 63.2363,1172.29 64,1157.5C 67.9271,1148.35 74.0938,1146.18 82.5,1151C 82.3552,1151.77 82.0219,1152.44 81.5,1153C 73.4963,1153 69.663,1156.84 70,1164.5C 75.8533,1177.11 84.6867,1179.61 96.5,1172C 107.684,1163.45 111.518,1152.28 108,1138.5C 104.595,1130.1 98.4283,1124.93 89.5,1123C 78.9206,1121.28 68.9206,1122.95 59.5,1128C 45.2247,1137.28 31.2247,1146.94 17.5,1157C 11.8118,1160.35 5.81182,1162.85 -0.5,1164.5 Z"/></g>
<g><path style="opacity:0.88" fill="#86abd3" d="M 961.5,1129.5 C 972.196,1133.16 977.196,1140.49 976.5,1151.5C 972.495,1143.67 967.162,1136.84 960.5,1131C 961.056,1130.62 961.389,1130.12 961.5,1129.5 Z"/></g>
<g><path style="opacity:0.911" fill="#87acd4" d="M 538.5,1132.5 C 557.474,1131.98 567.808,1141.14 569.5,1160C 568.678,1171.31 563.678,1180.31 554.5,1187C 545.049,1193.56 534.715,1198.22 523.5,1201C 499.199,1204.53 474.866,1207.86 450.5,1211C 438.094,1213.27 426.094,1216.77 414.5,1221.5C 414.33,1220.18 414.663,1219.01 415.5,1218C 430.465,1211.34 446.132,1207.01 462.5,1205C 479.512,1202.75 496.512,1200.42 513.5,1198C 530.551,1195.22 545.384,1188.06 558,1176.5C 566.304,1166.11 566.637,1155.44 559,1144.5C 544.545,1134.19 531.879,1136.19 521,1150.5C 517.691,1158.38 519.858,1164.21 527.5,1168C 529.5,1168.67 531.5,1168.67 533.5,1168C 536.072,1165.71 539.072,1164.55 542.5,1164.5C 539.962,1173.61 533.962,1176.78 524.5,1174C 513.06,1166.99 510.56,1157.49 517,1145.5C 522.977,1138.94 530.143,1134.61 538.5,1132.5 Z"/></g>
<g><path style="opacity:0.923" fill="#86acd4" d="M 370.5,1137.5 C 386.848,1154.97 406.181,1168.47 428.5,1178C 430.976,1179.31 432.976,1181.14 434.5,1183.5C 431.124,1184.71 427.791,1184.54 424.5,1183C 405.855,1175.34 389.689,1164.18 376,1149.5C 372.804,1146.11 370.971,1142.11 370.5,1137.5 Z"/></g>
<g><path style="opacity:0.898" fill="#87acd4" d="M 57.5,1144.5 C 58.4972,1144.47 59.1639,1144.97 59.5,1146C 55.3758,1150.75 52.7091,1156.25 51.5,1162.5C 52.5657,1167.61 53.899,1172.61 55.5,1177.5C 53.6096,1177.7 52.1096,1177.04 51,1175.5C 45.5595,1163.53 47.7262,1153.2 57.5,1144.5 Z"/></g>
<g><path style="opacity:0.925" fill="#85acd4" d="M 134.5,1163.5 C 135.117,1163.61 135.617,1163.94 136,1164.5C 136.667,1166.5 136.667,1168.5 136,1170.5C 119.65,1203.52 93.4829,1215.36 57.5,1206C 53.102,1204.48 49.4353,1201.98 46.5,1198.5C 85.7156,1211.98 115.049,1200.31 134.5,1163.5 Z"/></g>
<g><path style="opacity:0.916" fill="#86acd4" d="M 982.5,1167.5 C 985.785,1167.27 988.285,1168.6 990,1171.5C 994.056,1177.78 996.556,1184.61 997.5,1192C 997.691,1193.97 997.024,1195.47 995.5,1196.5C 992.855,1191.07 990.689,1185.41 989,1179.5C 987.063,1175.29 984.896,1171.29 982.5,1167.5 Z"/></g>
<g><path style="opacity:0.918" fill="#87acd5" d="M 581.5,1156.5 C 582.75,1156.58 583.583,1157.24 584,1158.5C 588.237,1169.72 586.071,1179.55 577.5,1188C 598.894,1185.6 620.227,1186.26 641.5,1190C 673.758,1199.81 706.091,1209.31 738.5,1218.5C 738.719,1219.68 738.386,1220.68 737.5,1221.5C 708.861,1216.01 680.861,1208.18 653.5,1198C 626.415,1190.46 599.082,1188.63 571.5,1192.5C 572.668,1191.09 572.335,1189.93 570.5,1189C 575.216,1183.73 579.049,1177.9 582,1171.5C 582.388,1166.49 582.222,1161.49 581.5,1156.5 Z"/></g>
<g><path style="opacity:0.921" fill="#85abd3" d="M 953.5,1197.5 C 967.644,1195.82 979.478,1200.16 989,1210.5C 989.49,1211.79 989.657,1213.13 989.5,1214.5C 988.127,1214.66 986.793,1214.49 985.5,1214C 967.407,1198.9 950.074,1198.74 933.5,1213.5C 933.22,1210.73 933.887,1208.23 935.5,1206C 940.951,1201.77 946.951,1198.94 953.5,1197.5 Z"/></g>
<g><path style="opacity:0.927" fill="#86add4" d="M 165.5,1218.5 C 166.922,1218.71 168.255,1219.21 169.5,1220C 188.141,1238.32 209.474,1252.66 233.5,1263C 236.623,1264.88 239.289,1267.22 241.5,1270C 238.833,1270.67 236.167,1270.67 233.5,1270C 205.723,1259.37 183.057,1242.2 165.5,1218.5 Z"/></g>
<g><path style="opacity:0.927" fill="#86acd4" d="M 960.5,1220.5 C 978.493,1216.74 990.326,1223.4 996,1240.5C 999.15,1269.35 989.317,1292.51 966.5,1310C 952.449,1317.73 937.449,1320.4 921.5,1318C 915.482,1316.99 909.816,1314.99 904.5,1312C 896.79,1305.29 889.456,1298.29 882.5,1291C 882.833,1290.5 883.167,1290 883.5,1289.5C 885.541,1290.24 887.541,1291.07 889.5,1292C 895.5,1296.67 901.5,1301.33 907.5,1306C 942.364,1318.6 968.197,1308.44 985,1275.5C 990.393,1263.93 991.726,1251.93 989,1239.5C 981.786,1226.1 971.286,1222.93 957.5,1230C 947.837,1235.83 943.337,1244.33 944,1255.5C 945.872,1262.41 949.706,1263.91 955.5,1260C 957.598,1257.15 959.931,1254.48 962.5,1252C 963.448,1251.52 964.448,1251.35 965.5,1251.5C 964.065,1266.15 956.398,1271.98 942.5,1269C 935.861,1262.54 933.694,1254.71 936,1245.5C 939.674,1232.66 947.841,1224.33 960.5,1220.5 Z"/></g>
<g><path style="opacity:0.925" fill="#87add4" d="M 345.5,1225.5 C 351.509,1225.33 357.509,1225.5 363.5,1226C 364.711,1226.89 364.711,1227.73 363.5,1228.5C 353.262,1230.57 342.928,1232.41 332.5,1234C 310.877,1238.47 292.21,1248.3 276.5,1263.5C 275.386,1262.28 275.219,1260.94 276,1259.5C 286.908,1248.29 299.741,1239.79 314.5,1234C 324.748,1230.36 335.081,1227.52 345.5,1225.5 Z"/></g>
<g><path style="opacity:0.92" fill="#86aad3" d="M 752.5,1227.5 C 759.695,1227.95 766.361,1230.12 772.5,1234C 779.592,1237.87 785.925,1242.71 791.5,1248.5C 789.579,1249.64 787.579,1249.81 785.5,1249C 775.759,1241.13 765.093,1234.8 753.5,1230C 752.748,1229.33 752.414,1228.5 752.5,1227.5 Z"/></g>
<g><path style="opacity:0.923" fill="#87acd4" d="M 291.5,1264.5 C 294.073,1264.15 296.406,1264.65 298.5,1266C 294.968,1267.18 291.634,1268.85 288.5,1271C 255.904,1296.67 231.904,1328.83 216.5,1367.5C 210.916,1369.34 209.083,1367.34 211,1361.5C 227.499,1320.45 254.332,1288.12 291.5,1264.5 Z"/></g>
<g><path style="opacity:0.912" fill="#87acd4" d="M 136.5,1267.5 C 145.626,1271.45 152.793,1277.78 158,1286.5C 176.824,1326.4 171.991,1363.23 143.5,1397C 141.866,1397.49 140.199,1397.66 138.5,1397.5C 138.338,1395.47 138.505,1393.47 139,1391.5C 151.592,1375.98 159.592,1358.31 163,1338.5C 165.42,1318.52 161.087,1300.18 150,1283.5C 145.266,1278.27 140.766,1272.94 136.5,1267.5 Z"/></g>
<g><path style="opacity:0.923" fill="#86abd3" d="M 63.5,1277.5 C 66.5,1277.5 69.5,1277.5 72.5,1277.5C 72.5,1278.5 72.5,1279.5 72.5,1280.5C 68.0888,1280.2 64.0888,1281.37 60.5,1284C 39.706,1298.8 29.5394,1318.96 30,1344.5C 31.3516,1353.87 35.3516,1361.87 42,1368.5C 42.6667,1370.17 42.6667,1371.83 42,1373.5C 41.4387,1374.02 40.772,1374.36 40,1374.5C 33.2872,1371.11 28.6206,1365.78 26,1358.5C 19.3641,1336.05 23.3641,1315.72 38,1297.5C 44.989,1288.65 53.489,1281.98 63.5,1277.5 Z"/></g>
<g><path style="opacity:0.912" fill="#87acd4" d="M 102.5,1304.5 C 120.826,1302.01 133.326,1309.34 140,1326.5C 151.007,1353.3 145.841,1376.47 124.5,1396C 115.505,1404 105.171,1409.67 93.5,1413C 89.5,1413.67 85.5,1413.67 81.5,1413C 79.5188,1412.39 79.1854,1411.39 80.5,1410C 107.556,1405.27 126.723,1390.44 138,1365.5C 142.741,1345.39 137.908,1327.89 123.5,1313C 114.708,1307.38 105.708,1307.04 96.5,1312C 84.5264,1317.06 76.0264,1325.56 71,1337.5C 69.6896,1349.05 73.5229,1358.55 82.5,1366C 96.4705,1369.36 105.637,1364.2 110,1350.5C 111.892,1341.36 108.725,1334.69 100.5,1330.5C 104.372,1329.01 107.539,1330.01 110,1333.5C 118.363,1350.75 113.863,1363.25 96.5,1371C 87.6451,1373.25 80.1451,1371.09 74,1364.5C 61.5822,1345.08 64.4155,1328.25 82.5,1314C 88.8737,1309.98 95.5404,1306.81 102.5,1304.5 Z"/></g>
<g><path style="opacity:0.93" fill="#86acd4" d="M 683.5,1324.5 C 706.874,1322.56 729.207,1326.39 750.5,1336C 753.206,1338.42 752.539,1339.59 748.5,1339.5C 736.957,1336.2 725.29,1333.36 713.5,1331C 697.845,1329.36 682.179,1329.02 666.5,1330C 665.027,1329.29 664.36,1328.12 664.5,1326.5C 671.008,1326.13 677.342,1325.46 683.5,1324.5 Z"/></g>
<g><path style="opacity:0.914" fill="#85acd4" d="M 961.5,1325.5 C 963.344,1326.2 963.844,1327.54 963,1329.5C 953.924,1342.1 941.757,1349.43 926.5,1351.5C 926.5,1350.5 926.5,1349.5 926.5,1348.5C 932.335,1347.61 937.668,1345.44 942.5,1342C 949.322,1337.01 955.655,1331.51 961.5,1325.5 Z"/></g>
<g><path style="opacity:0.926" fill="#86abd4" d="M 777.5,1336.5 C 789.505,1336.33 801.505,1336.5 813.5,1337C 818.906,1337.61 824.239,1338.61 829.5,1340C 843.281,1345.39 856.948,1351.06 870.5,1357C 872.717,1358.27 874.717,1359.77 876.5,1361.5C 871.464,1362.75 866.464,1362.59 861.5,1361C 853.261,1357.88 845.261,1354.21 837.5,1350C 818.172,1342.76 798.172,1339.26 777.5,1339.5C 777.5,1338.5 777.5,1337.5 777.5,1336.5 Z"/></g>
<g><path style="opacity:0.935" fill="#87acd4" d="M 113.5,1414.5 C 115.167,1414.5 116.833,1414.5 118.5,1414.5C 117.909,1417.61 116.242,1420.11 113.5,1422C 82.364,1443.45 48.364,1449.95 11.5,1441.5C 10.2888,1440.73 10.2888,1439.89 11.5,1439C 48.7973,1444.34 82.7973,1436.18 113.5,1414.5 Z"/></g>
<g><path style="opacity:0.922" fill="#86acd3" d="M 90.5,1485.5 C 91.8333,1485.5 93.1667,1485.5 94.5,1485.5C 94.6567,1486.87 94.49,1488.21 94,1489.5C 70.0979,1514.99 56.7646,1545.32 54,1580.5C 53.8325,1591.85 53.3325,1603.18 52.5,1614.5C 45.0987,1571.1 54.2654,1531.43 80,1495.5C 83.3955,1491.93 86.8955,1488.6 90.5,1485.5 Z"/></g>
</svg>
