<?xml version="1.0" encoding="UTF-8"?>
<!DOCTYPE svg PUBLIC "-//W3C//DTD SVG 1.1//EN" "http://www.w3.org/Graphics/SVG/1.1/DTD/svg11.dtd">
<svg xmlns="http://www.w3.org/2000/svg" version="1.1" width="2160px" height="1620px" style="shape-rendering:geometricPrecision; text-rendering:geometricPrecision; image-rendering:optimizeQuality; fill-rule:evenodd; clip-rule:evenodd" xmlns:xlink="http://www.w3.org/1999/xlink">
<g><path style="opacity:0.928" fill="#86abd4" d="M 2147.5,946.5 C 2148.5,946.47 2149.16,946.97 2149.5,948C 2147.18,952.987 2143.51,956.654 2138.5,959C 2131.36,963.553 2123.7,965.719 2115.5,965.5C 2121.92,962.966 2128.26,960.132 2134.5,957C 2139.31,954.015 2143.64,950.515 2147.5,946.5 Z"/></g>
<g><path style="opacity:0.929" fill="#85acd4" d="M 2100.5,973.5 C 2102.29,973.215 2103.95,973.548 2105.5,974.5C 2090.32,981.087 2075.32,988.254 2060.5,996C 2055.87,998.64 2051.87,1001.97 2048.5,1006C 2047.52,1006.59 2046.85,1006.26 2046.5,1005C 2047.08,1002.5 2048.42,1000.5 2050.5,999C 2065.98,988.094 2082.65,979.594 2100.5,973.5 Z"/></g>
<g><path style="opacity:0.89" fill="#87add5" d="M 2003.5,1039.5 C 2004.38,1039.37 2005.04,1039.7 2005.5,1040.5C 2001.58,1047.33 1997.42,1054 1993,1060.5C 1988.56,1068.05 1985.22,1076.05 1983,1084.5C 1982.1,1088.03 1982.43,1091.37 1984,1094.5C 1985.92,1093.46 1987.75,1092.29 1989.5,1091C 1990.64,1090.25 1991.64,1090.42 1992.5,1091.5C 1989.97,1095.76 1986.3,1097.93 1981.5,1098C 1979,1095.78 1978,1092.95 1978.5,1089.5C 1978.54,1085.01 1979.37,1080.68 1981,1076.5C 1986.99,1063.17 1994.49,1050.84 2003.5,1039.5 Z"/></g>
<g><path style="opacity:0.92" fill="#86acd4" d="M 2101.5,1051.5 C 2114.3,1052.06 2124.3,1057.56 2131.5,1068C 2131.15,1069.26 2130.48,1069.59 2129.5,1069C 2121.06,1058.77 2110.39,1054.77 2097.5,1057C 2091.5,1059 2087.5,1063 2085.5,1069C 2086.4,1071.57 2087.73,1073.9 2089.5,1076C 2093.74,1077.54 2097.74,1079.38 2101.5,1081.5C 2087.28,1084.44 2080.78,1078.78 2082,1064.5C 2086.14,1056.52 2092.64,1052.19 2101.5,1051.5 Z"/></g>
<g><path style="opacity:0.915" fill="#86acd3" d="M 2049.5,1058.5 C 2052.4,1058.13 2055.06,1058.63 2057.5,1060C 2043.64,1063.03 2035.3,1071.53 2032.5,1085.5C 2033.12,1090.62 2035.95,1093.62 2041,1094.5C 2047.34,1094.07 2052.17,1091.24 2055.5,1086C 2049,1083.16 2048,1079.16 2052.5,1074C 2061.34,1072.85 2064.5,1076.68 2062,1085.5C 2056.26,1097.12 2047.09,1101.29 2034.5,1098C 2031.62,1096.75 2029.79,1094.58 2029,1091.5C 2027.88,1075.47 2034.72,1064.47 2049.5,1058.5 Z M 2054.5,1078.5 C 2057.24,1079.07 2058.08,1080.74 2057,1083.5C 2055.12,1082.35 2054.28,1080.68 2054.5,1078.5 Z"/></g>
<g><path style="opacity:0.93" fill="#85abd2" d="M 2130.5,1087.5 C 2131.5,1087.47 2132.16,1087.97 2132.5,1089C 2135.93,1104.05 2136.76,1119.22 2135,1134.5C 2134.75,1135.62 2134.25,1136.62 2133.5,1137.5C 2132.85,1120.8 2131.85,1104.14 2130.5,1087.5 Z"/></g>
<g><path style="opacity:0.921" fill="#86abd4" d="M 2138.5,1106.5 C 2139.5,1106.5 2140.5,1106.5 2141.5,1106.5C 2143.69,1123.44 2140.86,1139.44 2133,1154.5C 2125.32,1165.18 2118.66,1176.51 2113,1188.5C 2111.61,1194.54 2110.11,1200.54 2108.5,1206.5C 2105.87,1198.41 2106.37,1190.41 2110,1182.5C 2116.5,1170.83 2123.5,1159.5 2131,1148.5C 2137.42,1135.22 2139.92,1121.22 2138.5,1106.5 Z"/></g>
</svg>
