<?xml version="1.0" encoding="UTF-8"?>
<!DOCTYPE svg PUBLIC "-//W3C//DTD SVG 1.1//EN" "http://www.w3.org/Graphics/SVG/1.1/DTD/svg11.dtd">
<svg xmlns="http://www.w3.org/2000/svg" version="1.1" width="2160px" height="1620px" style="shape-rendering:geometricPrecision; text-rendering:geometricPrecision; image-rendering:optimizeQuality; fill-rule:evenodd; clip-rule:evenodd" xmlns:xlink="http://www.w3.org/1999/xlink">
<g><path style="opacity:0.908" fill="#87acd4" d="M 1664.5,730.5 C 1700.6,732.354 1735.6,739.52 1769.5,752C 1774.42,753.95 1778.76,756.616 1782.5,760C 1782.33,760.5 1782.17,761 1782,761.5C 1744.24,746.434 1705.07,737.101 1664.5,733.5C 1664.5,732.5 1664.5,731.5 1664.5,730.5 Z"/></g>
<g><path style="opacity:0.925" fill="#86acd4" d="M 1591.5,754.5 C 1596.54,754.173 1601.54,754.506 1606.5,755.5C 1557.38,765.056 1515.05,787.223 1479.5,822C 1477.99,822.85 1476.49,823.683 1475,824.5C 1474.5,824.167 1474,823.833 1473.5,823.5C 1477.93,816.899 1482.93,810.732 1488.5,805C 1518.87,780.151 1553.2,763.318 1591.5,754.5 Z"/></g>
<g><path style="opacity:0.923" fill="#87acd4" d="M 1843.5,758.5 C 1846.02,758.755 1848.35,759.589 1850.5,761C 1869.18,774.337 1889.85,783.337 1912.5,788C 1933.65,791.096 1954.32,796.096 1974.5,803C 1991.18,810.071 2003.01,821.904 2010,838.5C 2015.71,866.26 2004.88,883.426 1977.5,890C 1962.82,892.218 1950.32,888.051 1940,877.5C 1931.95,867.63 1930.61,856.963 1936,845.5C 1944.95,837.599 1954.78,836.432 1965.5,842C 1971.73,846.984 1973.06,852.984 1969.5,860C 1960.59,862.037 1957.09,858.537 1959,849.5C 1959.41,849.043 1959.91,848.709 1960.5,848.5C 1961.83,850.5 1963.17,852.5 1964.5,854.5C 1965.33,852.064 1964.67,849.897 1962.5,848C 1954.87,842.925 1947.7,843.425 1941,849.5C 1936.94,861.587 1940.44,871.087 1951.5,878C 1970.2,887.765 1986.37,884.599 2000,868.5C 2008.06,853.667 2006.72,839.667 1996,826.5C 1981.6,811.793 1964.1,802.96 1943.5,800C 1921.96,796.699 1900.96,791.366 1880.5,784C 1866.27,777.887 1853.94,769.387 1843.5,758.5 Z"/></g>
<g><path style="opacity:0.908" fill="#87abd5" d="M 1804.5,764.5 C 1826.73,772.888 1846.23,785.555 1863,802.5C 1863.75,803.635 1863.58,804.635 1862.5,805.5C 1845.05,790.601 1826.05,777.934 1805.5,767.5C 1804.61,766.675 1804.28,765.675 1804.5,764.5 Z"/></g>
<g><path style="opacity:0.925" fill="#87add5" d="M 1936.5,777.5 C 1951.14,780.395 1965.81,783.228 1980.5,786C 1998.41,788.706 2013.58,796.539 2026,809.5C 2029.81,813.792 2031.31,818.792 2030.5,824.5C 2029.32,824.719 2028.32,824.386 2027.5,823.5C 2022.78,811.947 2014.78,803.447 2003.5,798C 1998.61,795.723 1993.61,793.723 1988.5,792C 1971.22,787.745 1953.89,783.745 1936.5,780C 1935.4,779.23 1935.4,778.397 1936.5,777.5 Z"/></g>
<g><path style="opacity:0.928" fill="#87acd3" d="M 1769.5,825.5 C 1778.39,825.038 1787.06,826.204 1795.5,829C 1797.84,829.837 1799.84,831.171 1801.5,833C 1791.32,830.877 1780.98,829.21 1770.5,828C 1769.75,827.329 1769.41,826.496 1769.5,825.5 Z"/></g>
<g><path style="opacity:0.912" fill="#88add4" d="M 1720.5,827.5 C 1728.59,827.239 1736.59,827.906 1744.5,829.5C 1744.5,830.5 1744.5,831.5 1744.5,832.5C 1726.16,830.468 1708.16,832.134 1690.5,837.5C 1689.83,837.167 1689.17,836.833 1688.5,836.5C 1690.78,834.777 1693.28,833.444 1696,832.5C 1704.18,830.224 1712.35,828.558 1720.5,827.5 Z"/></g>
<g><path style="opacity:0.872" fill="#87acd4" d="M 1663.5,848.5 C 1664.68,848.281 1665.68,848.614 1666.5,849.5C 1665.5,850.833 1664.5,852.167 1663.5,853.5C 1653.87,861.126 1644.54,869.126 1635.5,877.5C 1634.42,876.635 1634.25,875.635 1635,874.5C 1644.29,865.467 1653.79,856.8 1663.5,848.5 Z"/></g>
<g><path style="opacity:0.918" fill="#87add4" d="M 1442.5,854.5 C 1443.38,854.369 1444.04,854.702 1444.5,855.5C 1437.8,865.7 1431.3,876.033 1425,886.5C 1423.96,889.294 1422.46,889.794 1420.5,888C 1425.95,875.588 1433.29,864.421 1442.5,854.5 Z"/></g>
<g><path style="opacity:0.931" fill="#85abd3" d="M 1342.5,863.5 C 1344.23,863.843 1344.73,864.843 1344,866.5C 1328.43,890.865 1319.43,917.532 1317,946.5C 1316.83,958.847 1316.33,971.18 1315.5,983.5C 1313.45,980.512 1312.28,977.179 1312,973.5C 1308.35,937.741 1315.68,904.408 1334,873.5C 1336.73,869.95 1339.56,866.617 1342.5,863.5 Z"/></g>
<g><path style="opacity:0.93" fill="#86acd4" d="M 1796.5,897.5 C 1814.09,895.261 1830.76,898.094 1846.5,906C 1856.34,911.855 1859.17,920.021 1855,930.5C 1847.2,936.468 1839.04,936.968 1830.5,932C 1825.01,926.873 1824.17,921.039 1828,914.5C 1832.24,911.273 1837.07,909.773 1842.5,910C 1818.45,897.646 1794.45,897.98 1770.5,911C 1768.62,913.222 1766.45,915.056 1764,916.5C 1762.74,916.15 1762.41,915.483 1763,914.5C 1772.27,904.951 1783.43,899.284 1796.5,897.5 Z M 1837.5,915.5 C 1843.76,914.801 1848.43,917.134 1851.5,922.5C 1847.54,929.728 1841.87,931.228 1834.5,927C 1829.54,921.994 1830.54,918.161 1837.5,915.5 Z"/></g>
<g><path style="opacity:0.908" fill="#86aad4" d="M 1875.5,910.5 C 1875.74,909.903 1876.24,909.57 1877,909.5C 1896.11,920.23 1915.78,921.23 1936,912.5C 1936.17,913 1936.33,913.5 1936.5,914C 1933.57,917.241 1929.91,919.241 1925.5,920C 1911.62,923.752 1897.95,923.086 1884.5,918C 1881.02,915.947 1878.02,913.447 1875.5,910.5 Z"/></g>
<g><path style="opacity:0.928" fill="#86acd4" d="M 1738.5,974.5 C 1756.79,971.273 1772.29,976.273 1785,989.5C 1798.3,1012.52 1795.47,1033.35 1776.5,1052C 1762.55,1062.52 1747.55,1064.52 1731.5,1058C 1723.8,1051.39 1721.64,1043.22 1725,1033.5C 1732.84,1017 1745.67,1010.83 1763.5,1015C 1770.23,1023.68 1768.23,1029.68 1757.5,1033C 1756.06,1033.78 1754.72,1033.61 1753.5,1032.5C 1756.14,1030.2 1758.81,1027.86 1761.5,1025.5C 1763.11,1022.24 1762.11,1020.08 1758.5,1019C 1745.72,1018.47 1736.55,1023.97 1731,1035.5C 1728.01,1043.85 1730.51,1050.01 1738.5,1054C 1759.73,1057.3 1774.9,1049.13 1784,1029.5C 1790.27,1008.56 1783.77,993.056 1764.5,983C 1746.96,977.719 1730.96,980.719 1716.5,992C 1697.6,1008.29 1685.77,1028.79 1681,1053.5C 1677.2,1068.39 1677.87,1083.05 1683,1097.5C 1685.14,1100.94 1687.64,1104.11 1690.5,1107C 1690,1107.5 1689.5,1108 1689,1108.5C 1680.84,1103.54 1676.18,1096.21 1675,1086.5C 1671.03,1051.41 1680.53,1020.58 1703.5,994C 1713.48,984.347 1725.15,977.847 1738.5,974.5 Z"/></g>
<g><path style="opacity:0.901" fill="#87acd4" d="M 1314.5,1003.5 C 1321.06,1015.62 1327.39,1027.95 1333.5,1040.5C 1333,1040.83 1332.5,1041.17 1332,1041.5C 1322.99,1031.14 1316.82,1019.14 1313.5,1005.5C 1313.86,1004.82 1314.2,1004.15 1314.5,1003.5 Z"/></g>
<g><path style="opacity:0.901" fill="#88add4" d="M 1706.5,1073.5 C 1707.38,1073.37 1708.04,1073.7 1708.5,1074.5C 1711.2,1083.57 1715.7,1091.57 1722,1098.5C 1728.71,1104.72 1735.54,1110.72 1742.5,1116.5C 1741.64,1117.58 1740.64,1117.75 1739.5,1117C 1721.69,1108.37 1710.36,1094.53 1705.5,1075.5C 1705.86,1074.82 1706.2,1074.15 1706.5,1073.5 Z"/></g>
<g><path style="opacity:0.94" fill="#85abd3" d="M 1640.5,1173.5 C 1653.62,1196.17 1669.78,1216.84 1689,1235.5C 1689.64,1236.97 1690.47,1238.3 1691.5,1239.5C 1691.19,1240.31 1690.69,1240.97 1690,1241.5C 1670.56,1227.64 1655.56,1209.98 1645,1188.5C 1642.79,1183.7 1641.29,1178.7 1640.5,1173.5 Z"/></g>
<g><path style="opacity:0.915" fill="#86acd4" d="M 1975.5,1192.5 C 1995.53,1191.91 2000.7,1200.24 1991,1217.5C 1982.33,1228.17 1971.16,1233 1957.5,1232C 1952.09,1230.02 1950.26,1226.19 1952,1220.5C 1957.73,1212.2 1965.23,1209.87 1974.5,1213.5C 1972.88,1215.44 1971.04,1215.77 1969,1214.5C 1964.26,1215.54 1960.26,1217.87 1957,1221.5C 1955.21,1226.23 1957.05,1228.23 1962.5,1227.5C 1973.47,1225.7 1982.3,1220.36 1989,1211.5C 1993.74,1202.38 1990.91,1197.38 1980.5,1196.5C 1967.72,1199.06 1956.38,1204.56 1946.5,1213C 1930.47,1228.7 1914.14,1244.03 1897.5,1259C 1887.39,1266.39 1876.39,1272.22 1864.5,1276.5C 1863.61,1275.68 1863.28,1274.68 1863.5,1273.5C 1875.84,1268.83 1887.18,1262.33 1897.5,1254C 1914.53,1237.3 1931.86,1220.97 1949.5,1205C 1957.61,1199.44 1966.28,1195.28 1975.5,1192.5 Z"/></g>
<g><path style="opacity:0.894" fill="#87add4" d="M 2008.5,1212.5 C 2009.59,1212.62 2010.25,1213.29 2010.5,1214.5C 2004.62,1229.88 1993.79,1239.88 1978,1244.5C 1977.17,1244.17 1976.33,1243.83 1975.5,1243.5C 1990.75,1237.58 2001.75,1227.24 2008.5,1212.5 Z"/></g>
<g><path style="opacity:0.911" fill="#86acd3" d="M 1277.5,1232.5 C 1278.38,1232.37 1279.04,1232.7 1279.5,1233.5C 1265.1,1256.03 1257.77,1280.7 1257.5,1307.5C 1256.18,1307.67 1255.01,1307.34 1254,1306.5C 1252.92,1278.9 1260.76,1254.23 1277.5,1232.5 Z"/></g>
<g><path style="opacity:0.926" fill="#87acd4" d="M 1250.5,1260.5 C 1251.76,1260.46 1252.76,1260.96 1253.5,1262C 1247.77,1271.2 1244.43,1281.2 1243.5,1292C 1245.11,1305.26 1247.27,1318.42 1250,1331.5C 1251.34,1345.47 1249.01,1358.8 1243,1371.5C 1241.41,1374.92 1239.24,1377.92 1236.5,1380.5C 1235.39,1379.28 1235.22,1377.94 1236,1376.5C 1241.75,1365.01 1244.91,1352.85 1245.5,1340C 1242.12,1322.93 1239.45,1305.76 1237.5,1288.5C 1238.79,1277.59 1243.12,1268.26 1250.5,1260.5 Z"/></g>
<g><path style="opacity:0.891" fill="#85abd3" d="M 1950.5,1284.5 C 1952.23,1284.84 1952.73,1285.84 1952,1287.5C 1948.67,1292.17 1945.33,1296.83 1942,1301.5C 1935.86,1312.77 1930.03,1324.11 1924.5,1335.5C 1923.39,1334.28 1923.22,1332.94 1924,1331.5C 1929.75,1313.99 1938.58,1298.32 1950.5,1284.5 Z"/></g>
<g><path style="opacity:0.912" fill="#88acd5" d="M 1221.5,1352.5 C 1225,1352.57 1225.5,1353.9 1223,1356.5C 1215.73,1371.11 1205.56,1383.27 1192.5,1393C 1189.72,1395.26 1186.72,1395.76 1183.5,1394.5C 1191.35,1390.15 1198.18,1384.48 1204,1377.5C 1209.84,1369.14 1215.68,1360.8 1221.5,1352.5 Z"/></g>
<g><path style="opacity:0.919" fill="#86acd4" d="M 1882.5,1358.5 C 1884.23,1358.84 1884.73,1359.84 1884,1361.5C 1868.59,1373.96 1851.42,1383.46 1832.5,1390C 1800.99,1399.88 1768.99,1407.88 1736.5,1414C 1728.05,1415.71 1719.89,1418.21 1712,1421.5C 1711.31,1420.97 1710.81,1420.31 1710.5,1419.5C 1713.16,1416.35 1716.49,1414.19 1720.5,1413C 1742.14,1408.21 1763.81,1403.54 1785.5,1399C 1812.91,1392.64 1839.25,1383.31 1864.5,1371C 1871.09,1367.55 1877.09,1363.38 1882.5,1358.5 Z"/></g>
<g><path style="opacity:0.918" fill="#86acd4" d="M 1267.5,1363.5 C 1268.68,1363.28 1269.68,1363.61 1270.5,1364.5C 1250.45,1388.25 1245.95,1414.58 1257,1443.5C 1259.54,1447.05 1262.87,1449.38 1267,1450.5C 1272.38,1449.17 1274.21,1446 1272.5,1441C 1269.05,1440.82 1265.72,1440.66 1262.5,1440.5C 1265.32,1435.97 1269.32,1434.47 1274.5,1436C 1276.67,1436.83 1278.17,1438.33 1279,1440.5C 1280.81,1450.53 1276.64,1456.19 1266.5,1457.5C 1253.98,1454.47 1246.81,1446.47 1245,1433.5C 1241.26,1410.86 1245.93,1390.19 1259,1371.5C 1261.73,1368.6 1264.56,1365.93 1267.5,1363.5 Z"/></g>
<g><path style="opacity:0.919" fill="#87acd4" d="M 1540.5,1398.5 C 1541.5,1398.47 1542.16,1398.97 1542.5,1400C 1532.52,1424.3 1518.19,1445.64 1499.5,1464C 1486.83,1473 1474.17,1482 1461.5,1491C 1451.57,1500.03 1447.07,1511.19 1448,1524.5C 1452.9,1534.86 1461.06,1538.7 1472.5,1536C 1485.21,1531.29 1492.88,1522.29 1495.5,1509C 1494.41,1502.58 1490.75,1500.24 1484.5,1502C 1482.27,1503.62 1480.94,1505.79 1480.5,1508.5C 1482.07,1512.07 1484.07,1515.41 1486.5,1518.5C 1482.43,1519.01 1479.27,1517.35 1477,1513.5C 1473.22,1506.16 1475.06,1500.66 1482.5,1497C 1491.4,1493.53 1497.23,1496.37 1500,1505.5C 1500.59,1522.81 1492.75,1534.65 1476.5,1541C 1452.3,1546.8 1440.8,1537.3 1442,1512.5C 1445.11,1502.45 1450.61,1493.95 1458.5,1487C 1469.33,1479.42 1480.33,1472.09 1491.5,1465C 1512.26,1446.08 1528.6,1423.91 1540.5,1398.5 Z"/></g>
<g><path style="opacity:0.904" fill="#86acd4" d="M 1825.5,1397.5 C 1826.29,1397.78 1826.96,1398.28 1827.5,1399C 1813.28,1411.28 1796.95,1419.61 1778.5,1424C 1756.05,1427.09 1734.05,1432.09 1712.5,1439C 1699.49,1443.48 1689.16,1451.32 1681.5,1462.5C 1680.4,1459.64 1680.9,1456.97 1683,1454.5C 1690.35,1446.24 1699.18,1440.07 1709.5,1436C 1717.64,1432.73 1725.97,1430.07 1734.5,1428C 1750.55,1424.92 1766.55,1421.59 1782.5,1418C 1797.96,1413.27 1812.29,1406.44 1825.5,1397.5 Z"/></g>
<g><path style="opacity:0.92" fill="#86abd3" d="M 1201.5,1418.5 C 1203.55,1418.96 1205.55,1419.63 1207.5,1420.5C 1208.83,1421.5 1208.83,1422.5 1207.5,1423.5C 1203.79,1422.19 1200.13,1422.36 1196.5,1424C 1179.82,1432.35 1166.65,1444.51 1157,1460.5C 1150.06,1471.93 1147.39,1484.26 1149,1497.5C 1153.67,1512.08 1163.17,1516.92 1177.5,1512C 1190.8,1503.92 1195.63,1492.42 1192,1477.5C 1183.06,1468.93 1175.39,1469.93 1169,1480.5C 1168.33,1482.17 1168.33,1483.83 1169,1485.5C 1171.42,1487.65 1174.26,1488.99 1177.5,1489.5C 1178.39,1490.32 1178.72,1491.32 1178.5,1492.5C 1163.4,1493.55 1159.23,1487.21 1166,1473.5C 1173.39,1466.04 1181.89,1464.54 1191.5,1469C 1199.22,1476.38 1201.39,1485.22 1198,1495.5C 1190.42,1517.04 1175.92,1524.21 1154.5,1517C 1145.49,1510.13 1141.49,1500.97 1142.5,1489.5C 1142.77,1475.86 1146.93,1463.53 1155,1452.5C 1166.8,1435.87 1182.3,1424.54 1201.5,1418.5 Z"/></g>
<g><path style="opacity:0.92" fill="#86abd3" d="M 1303.5,1434.5 C 1305.15,1443.85 1306.65,1453.52 1308,1463.5C 1310.64,1476.5 1318.14,1485.17 1330.5,1489.5C 1333.84,1489.17 1336.51,1487.67 1338.5,1485C 1335.4,1482.18 1331.73,1480.52 1327.5,1480C 1326.17,1479.33 1326.17,1478.67 1327.5,1478C 1332.07,1477.11 1336.41,1477.78 1340.5,1480C 1344.66,1484.9 1343.99,1489.23 1338.5,1493C 1325.54,1496.44 1315.7,1492.27 1309,1480.5C 1306.2,1474.77 1304.2,1468.77 1303,1462.5C 1302.2,1453.09 1302.36,1443.76 1303.5,1434.5 Z"/></g>
</svg>
