<?xml version="1.0" encoding="UTF-8"?>
<!DOCTYPE svg PUBLIC "-//W3C//DTD SVG 1.1//EN" "http://www.w3.org/Graphics/SVG/1.1/DTD/svg11.dtd">
<svg xmlns="http://www.w3.org/2000/svg" version="1.1" width="2160px" height="1620px" style="shape-rendering:geometricPrecision; text-rendering:geometricPrecision; image-rendering:optimizeQuality; fill-rule:evenodd; clip-rule:evenodd" xmlns:xlink="http://www.w3.org/1999/xlink">
<g><path style="opacity:0.878" fill="#b7b7b7" d="M 2071.5,1171.5 C 2075.57,1171.23 2079.57,1171.57 2083.5,1172.5C 2084.83,1174.83 2084.83,1177.17 2083.5,1179.5C 2082.11,1178.39 2080.94,1177.06 2080,1175.5C 2066.02,1180.16 2053.52,1187.33 2042.5,1197C 2026.39,1210.76 2013.73,1227.09 2004.5,1246C 2010.04,1260.53 2020.38,1265.86 2035.5,1262C 2047.86,1258.13 2056.53,1250.3 2061.5,1238.5C 2060.05,1235.06 2057.71,1234.56 2054.5,1237C 2051.65,1240.02 2048.65,1242.85 2045.5,1245.5C 2044.7,1235.48 2049.36,1229.81 2059.5,1228.5C 2063.5,1228.25 2066.34,1229.92 2068,1233.5C 2068.97,1244.07 2065.14,1252.57 2056.5,1259C 2042.92,1269.16 2028.26,1271.16 2012.5,1265C 2007.3,1261.47 2004.13,1256.64 2003,1250.5C 1998.17,1263.81 1994.67,1277.48 1992.5,1291.5C 1992.27,1292.93 1991.6,1293.43 1990.5,1293C 1987.77,1260.42 1997.27,1231.92 2019,1207.5C 2033.64,1191.11 2051.14,1179.11 2071.5,1171.5 Z"/></g>
<g><path style="opacity:0.852" fill="#b8b8b8" d="M 2159.5,1181.5 C 2159.5,1182.5 2159.5,1183.5 2159.5,1184.5C 2134.07,1184.88 2112.41,1194.05 2094.5,1212C 2093.52,1212.59 2092.85,1212.26 2092.5,1211C 2109.8,1189.68 2132.13,1179.85 2159.5,1181.5 Z"/></g>
<g><path style="opacity:0.84" fill="#b7b7b7" d="M -0.5,1224.5 C -0.5,1223.17 -0.5,1221.83 -0.5,1220.5C 18.381,1216.56 36.381,1210.06 53.5,1201C 54.635,1200.25 55.635,1200.42 56.5,1201.5C 39.2278,1213.3 20.2278,1220.96 -0.5,1224.5 Z"/></g>
<g><path style="opacity:0.852" fill="#b8b8b8" d="M 102.5,1226.5 C 103.756,1226.46 104.756,1226.96 105.5,1228C 96.8169,1239.2 90.6503,1251.7 87,1265.5C 80.7037,1288.95 89.537,1301.29 113.5,1302.5C 131.43,1300.6 149.097,1297.27 166.5,1292.5C 166.5,1293.5 166.5,1294.5 166.5,1295.5C 156.287,1298.96 145.953,1302.13 135.5,1305C 122.206,1308.87 108.873,1309.2 95.5,1306C 87.071,1302.57 81.9043,1296.4 80,1287.5C 78.7064,1263.88 86.2064,1243.54 102.5,1226.5 Z"/></g>
<g><path style="opacity:0.876" fill="#b7b7b7" d="M 2114.5,1235.5 C 2113.87,1259.44 2105.04,1280.44 2088,1298.5C 2086.23,1307.56 2083.23,1316.23 2079,1324.5C 2073.23,1333.13 2065.39,1338.97 2055.5,1342C 2051.97,1342.9 2048.63,1342.57 2045.5,1341C 2046.17,1340.33 2046.83,1339.67 2047.5,1339C 2066.73,1330.75 2078.23,1316.25 2082,1295.5C 2098.3,1278.56 2109.14,1258.56 2114.5,1235.5 Z"/></g>
<g><path style="opacity:0.865" fill="#b7b7b7" d="M 480.5,1256.5 C 493.219,1256.1 505.886,1256.6 518.5,1258C 519.38,1259.36 519.714,1260.86 519.5,1262.5C 503.246,1260.85 488.246,1264.35 474.5,1273C 455.669,1289.68 457.669,1303.35 480.5,1314C 487.951,1315.86 495.285,1318.03 502.5,1320.5C 488.485,1322.66 475.818,1319.5 464.5,1311C 453.002,1296.25 454.668,1282.92 469.5,1271C 476.337,1266.58 483.67,1263.25 491.5,1261C 477.367,1260.72 463.367,1262.05 449.5,1265C 422.601,1271.47 395.601,1277.47 368.5,1283C 357.219,1285.16 345.886,1285.66 334.5,1284.5C 334.709,1283.91 335.043,1283.41 335.5,1283C 347.921,1282.47 360.254,1281.14 372.5,1279C 396.869,1273.49 421.203,1267.82 445.5,1262C 457.248,1259.74 468.914,1257.91 480.5,1256.5 Z"/></g>
<g><path style="opacity:0.87" fill="#b9b9b9" d="M 2048.5,1287.5 C 2049.48,1287.81 2050.14,1288.48 2050.5,1289.5C 2034.02,1303.87 2015.02,1309.04 1993.5,1305C 1988.55,1303.21 1984.88,1300.04 1982.5,1295.5C 1982.67,1294.83 1982.83,1294.17 1983,1293.5C 1996.47,1303.66 2010.97,1305.16 2026.5,1298C 2034.05,1294.73 2041.38,1291.23 2048.5,1287.5 Z"/></g>
<g><path style="opacity:0.873" fill="#b7b7b7" d="M -0.5,1372.5 C -0.5,1371.17 -0.5,1369.83 -0.5,1368.5C 28.4335,1381.18 58.4335,1384.34 89.5,1378C 104.655,1374.39 119.322,1369.39 133.5,1363C 156.677,1351.13 179.344,1338.47 201.5,1325C 219.558,1314.87 238.891,1308.54 259.5,1306C 277.619,1303.51 294.285,1307.17 309.5,1317C 323.775,1331.83 325.942,1348.33 316,1366.5C 315.255,1367.99 314.088,1368.99 312.5,1369.5C 305.94,1360.34 296.94,1355.18 285.5,1354C 260.764,1352.02 240.931,1360.85 226,1380.5C 215.695,1396.49 216.029,1412.15 227,1427.5C 238.631,1439.9 252.797,1448.07 269.5,1452C 281.769,1454.6 294.103,1456.77 306.5,1458.5C 306.5,1459.5 306.5,1460.5 306.5,1461.5C 284.717,1461.76 263.717,1457.93 243.5,1450C 211.367,1433.27 203.534,1408.77 220,1376.5C 240.217,1352.1 265.717,1343.93 296.5,1352C 303.213,1354.39 308.38,1358.56 312,1364.5C 322.047,1338.76 313.88,1321.59 287.5,1313C 266.184,1309.08 245.517,1311.41 225.5,1320C 202.095,1331.09 179.428,1343.43 157.5,1357C 132.342,1371.75 105.342,1381.08 76.5,1385C 57.6076,1386.56 38.941,1385.23 20.5,1381C 13.0767,1379.03 6.07666,1376.2 -0.5,1372.5 Z"/></g>
<g><path style="opacity:0.853" fill="#b8b8b8" d="M 1160.5,1317.5 C 1162.23,1317.84 1162.73,1318.84 1162,1320.5C 1143.39,1336.63 1121.72,1345.63 1097,1347.5C 1091.75,1347.15 1086.59,1346.32 1081.5,1345C 1080,1344.42 1078.67,1343.58 1077.5,1342.5C 1083.15,1341.91 1088.81,1342.24 1094.5,1343.5C 1108.88,1342.21 1122.55,1338.37 1135.5,1332C 1143.9,1327.14 1152.23,1322.31 1160.5,1317.5 Z"/></g>
<g><path style="opacity:0.868" fill="#b8b8b8" d="M 2159.5,1320.5 C 2159.5,1324.5 2159.5,1328.5 2159.5,1332.5C 2154.46,1335.99 2148.79,1337.32 2142.5,1336.5C 2138.12,1358.48 2130.28,1379.15 2119,1398.5C 2115.88,1403.29 2112.38,1407.79 2108.5,1412C 2107.28,1412.56 2106.28,1412.23 2105.5,1411C 2121.33,1387.01 2132,1360.84 2137.5,1332.5C 2146.85,1332.16 2154.18,1328.16 2159.5,1320.5 Z"/></g>
<g><path style="opacity:0.874" fill="#b7b7b7" d="M 395.5,1324.5 C 399.558,1328.05 403.558,1331.89 407.5,1336C 417.995,1342.13 429.328,1345.79 441.5,1347C 451.303,1348.02 461.136,1348.52 471,1348.5C 492.826,1347.37 514.659,1346.87 536.5,1347C 532.403,1348.73 528.069,1349.73 523.5,1350C 494.895,1353.67 466.228,1354.34 437.5,1352C 427.652,1350.54 418.319,1347.54 409.5,1343C 402.311,1338.66 397.644,1332.49 395.5,1324.5 Z"/></g>
<g><path style="opacity:0.854" fill="#b8b8b8" d="M 1165.5,1350.5 C 1191.87,1349.72 1207.2,1362.22 1211.5,1388C 1211.58,1393.64 1209.91,1398.64 1206.5,1403C 1204.73,1404.76 1203.06,1404.76 1201.5,1403C 1209.56,1382.1 1203.22,1367.1 1182.5,1358C 1166.66,1353.5 1152.66,1356.83 1140.5,1368C 1129.5,1379.86 1119.33,1392.36 1110,1405.5C 1097.87,1420.48 1083.03,1431.98 1065.5,1440C 1060.98,1441.74 1056.31,1442.9 1051.5,1443.5C 1049.93,1443.52 1048.6,1443.02 1047.5,1442C 1060.34,1438.75 1072.01,1433.08 1082.5,1425C 1099.51,1410 1114.34,1393.16 1127,1374.5C 1136.87,1361.49 1149.71,1353.49 1165.5,1350.5 Z"/></g>
<g><path style="opacity:0.851" fill="#b8b8b8" d="M 1047.5,1353.5 C 1049.29,1353.21 1050.95,1353.55 1052.5,1354.5C 1041.02,1367.82 1028.68,1380.32 1015.5,1392C 1007.7,1398.48 998.864,1402.98 989,1405.5C 987.833,1405.17 986.667,1404.83 985.5,1404.5C 995.438,1400.87 1004.44,1395.7 1012.5,1389C 1024.4,1377.27 1036.06,1365.44 1047.5,1353.5 Z"/></g>
<g><path style="opacity:0.853" fill="#b7b7b7" d="M 1570.5,1370.5 C 1571.83,1370.5 1573.17,1370.5 1574.5,1370.5C 1570.82,1389.46 1578.49,1399.13 1597.5,1399.5C 1580.67,1404.18 1571.17,1397.84 1569,1380.5C 1558.35,1394.83 1545.51,1406.66 1530.5,1416C 1526.02,1418.46 1521.36,1419.29 1516.5,1418.5C 1538.54,1407.13 1556.54,1391.13 1570.5,1370.5 Z"/></g>
<g><path style="opacity:0.868" fill="#b8b8b8" d="M 2005.5,1381.5 C 2006.5,1381.5 2007.5,1381.5 2008.5,1381.5C 2008.39,1383.78 2007.56,1385.78 2006,1387.5C 1992.6,1402.78 1975.77,1411.62 1955.5,1414C 1948.7,1419.46 1941.37,1424.12 1933.5,1428C 1922.89,1432.08 1912.23,1432.41 1901.5,1429C 1899.96,1427.89 1899.3,1426.39 1899.5,1424.5C 1909.42,1425.25 1919.08,1424.08 1928.5,1421C 1936.67,1417.09 1944.33,1412.42 1951.5,1407C 1972.8,1405.18 1990.8,1396.68 2005.5,1381.5 Z"/></g>
<g><path style="opacity:0.868" fill="#b7b7b7" d="M 1170.5,1399.5 C 1181.31,1398.23 1188.64,1402.56 1192.5,1412.5C 1191.5,1413.83 1190.5,1413.83 1189.5,1412.5C 1187.07,1406.78 1182.74,1403.78 1176.5,1403.5C 1158.64,1406.19 1146.14,1415.86 1139,1432.5C 1135.5,1447.34 1141,1457.17 1155.5,1462C 1174.85,1465.41 1192.51,1461.41 1208.5,1450C 1210.53,1448.79 1212.53,1448.63 1214.5,1449.5C 1197.84,1467.11 1177.5,1473.61 1153.5,1469C 1135.77,1463.72 1128.6,1451.89 1132,1433.5C 1138.48,1414.84 1151.32,1403.51 1170.5,1399.5 Z"/></g>
<g><path style="opacity:0.857" fill="#b8b8b8" d="M 835.5,1400.5 C 836.978,1400.24 838.311,1400.57 839.5,1401.5C 832.853,1406.31 827.019,1411.98 822,1418.5C 814.812,1430.21 808.145,1442.21 802,1454.5C 793.718,1468.61 781.885,1478.61 766.5,1484.5C 765.406,1483.13 765.74,1481.97 767.5,1481C 776.525,1475.98 784.358,1469.48 791,1461.5C 799.731,1447.76 808.065,1433.76 816,1419.5C 818.833,1416 821.667,1412.5 824.5,1409C 828.067,1405.92 831.733,1403.09 835.5,1400.5 Z"/></g>
<g><path style="opacity:0.855" fill="#b6b6b6" d="M 860.5,1401.5 C 861.675,1401.28 862.675,1401.61 863.5,1402.5C 854.55,1412.24 849.55,1423.74 848.5,1437C 849.755,1453.09 858.422,1461.59 874.5,1462.5C 892.918,1460.62 907.918,1452.46 919.5,1438C 920.483,1437.41 921.15,1437.74 921.5,1439C 910.788,1456.78 894.955,1466.28 874,1467.5C 855.047,1467.05 845.214,1457.38 844.5,1438.5C 845.203,1424.1 850.536,1411.77 860.5,1401.5 Z"/></g>
<g><path style="opacity:0.839" fill="#b8b8b8" d="M 183.5,1407.5 C 184.496,1407.41 185.329,1407.75 186,1408.5C 188.889,1423.14 196.389,1434.64 208.5,1443C 214.652,1445.58 220.652,1448.41 226.5,1451.5C 205.899,1450.75 192.399,1440.42 186,1420.5C 184.95,1416.2 184.116,1411.86 183.5,1407.5 Z"/></g>
<g><path style="opacity:0.818" fill="#b8b8b8" d="M 348.5,1419.5 C 369.821,1420.24 391.154,1420.74 412.5,1421C 417.512,1421.04 422.179,1422.2 426.5,1424.5C 425,1424.83 423.5,1425.17 422,1425.5C 402.513,1424.72 383.013,1424.22 363.5,1424C 358.79,1423.62 354.123,1422.96 349.5,1422C 348.748,1421.33 348.414,1420.5 348.5,1419.5 Z"/></g>
<g><path style="opacity:0.861" fill="#b8b8b8" d="M 263.5,1425.5 C 264.601,1424.4 265.934,1424.24 267.5,1425C 282.129,1431.66 297.462,1435.49 313.5,1436.5C 295.227,1439.68 278.56,1436.01 263.5,1425.5 Z"/></g>
<g><path style="opacity:0.853" fill="#b8b8b8" d="M 1690.5,1426.5 C 1694.18,1426.33 1697.85,1426.5 1701.5,1427C 1704.19,1430.68 1707.19,1434.02 1710.5,1437C 1715.07,1438.31 1719.73,1438.81 1724.5,1438.5C 1724.5,1439.5 1724.5,1440.5 1724.5,1441.5C 1712.71,1445.43 1704.04,1441.93 1698.5,1431C 1697.67,1430.83 1696.83,1430.67 1696,1430.5C 1672.36,1438.23 1648.86,1446.4 1625.5,1455C 1615.87,1457.66 1606.2,1460.16 1596.5,1462.5C 1594.73,1461.96 1594.4,1461.13 1595.5,1460C 1627.96,1450.68 1659.63,1439.52 1690.5,1426.5 Z"/></g>
<g><path style="opacity:0.846" fill="#b8b8b8" d="M 609.5,1427.5 C 611.857,1427.34 614.19,1427.5 616.5,1428C 617.022,1428.56 617.355,1429.23 617.5,1430C 612.565,1435.61 608.399,1441.78 605,1448.5C 603.925,1453.09 604.759,1457.26 607.5,1461C 606.127,1462.48 604.627,1462.31 603,1460.5C 599.597,1454.03 599.931,1447.69 604,1441.5C 606.5,1438.33 609,1435.17 611.5,1432C 611,1431.83 610.5,1431.67 610,1431.5C 605.581,1433.59 601.415,1436.09 597.5,1439C 582.075,1452.43 566.075,1465.09 549.5,1477C 544.226,1480.47 538.56,1483.14 532.5,1485C 530.421,1485.81 528.421,1485.64 526.5,1484.5C 535.722,1481.12 544.389,1476.62 552.5,1471C 565.791,1460.71 578.791,1450.04 591.5,1439C 597.427,1434.88 603.427,1431.04 609.5,1427.5 Z"/></g>
<g><path style="opacity:0.866" fill="#b8b8b8" d="M 1824.5,1428.5 C 1846.33,1427.71 1864.83,1435.05 1880,1450.5C 1891.42,1466.49 1894.76,1484.16 1890,1503.5C 1888.2,1509.89 1886.2,1516.23 1884,1522.5C 1877.67,1535.83 1871.33,1549.17 1865,1562.5C 1859.99,1573.4 1862.32,1582.4 1872,1589.5C 1872.64,1590.97 1873.47,1592.3 1874.5,1593.5C 1863,1591.64 1857,1584.64 1856.5,1572.5C 1856.56,1566.61 1857.72,1560.94 1860,1555.5C 1865.39,1543.71 1871.06,1532.04 1877,1520.5C 1884.17,1506.3 1886.84,1491.3 1885,1475.5C 1878.21,1452.16 1862.71,1438.66 1838.5,1435C 1813.21,1431.98 1792.05,1439.82 1775,1458.5C 1763.47,1475.18 1765.31,1490.18 1780.5,1503.5C 1780,1503.83 1779.5,1504.17 1779,1504.5C 1763.15,1494.66 1758.82,1480.99 1766,1463.5C 1773.43,1449.41 1784.59,1439.57 1799.5,1434C 1807.76,1431.18 1816.1,1429.35 1824.5,1428.5 Z"/></g>
<g><path style="opacity:0.856" fill="#b6b6b6" d="M 2052.5,1428.5 C 2053.75,1428.58 2054.58,1429.24 2055,1430.5C 2053.63,1457.75 2043.13,1480.91 2023.5,1500C 2020.71,1502.51 2019.55,1502.01 2020,1498.5C 2038.1,1478.63 2048.93,1455.3 2052.5,1428.5 Z"/></g>
<g><path style="opacity:0.878" fill="#b8b8b8" d="M 1457.5,1439.5 C 1459.15,1448.37 1461.31,1457.37 1464,1466.5C 1468.75,1474.12 1475.58,1477.29 1484.5,1476C 1496.87,1472.82 1506.87,1466.15 1514.5,1456C 1515.45,1455.52 1516.45,1455.35 1517.5,1455.5C 1515.04,1463.81 1510.04,1470.31 1502.5,1475C 1474.32,1489.58 1458.98,1481.25 1456.5,1450C 1456.58,1446.45 1456.91,1442.95 1457.5,1439.5 Z"/></g>
<g><path style="opacity:0.861" fill="#b6b6b6" d="M 1424.5,1444.5 C 1425.5,1444.5 1426.5,1444.5 1427.5,1444.5C 1432.15,1478.36 1419.49,1503.19 1389.5,1519C 1384.66,1521.37 1379.66,1521.87 1374.5,1520.5C 1398.11,1513.39 1413.61,1498.06 1421,1474.5C 1421.33,1465.83 1421.67,1457.17 1422,1448.5C 1422.66,1447.02 1423.5,1445.68 1424.5,1444.5 Z"/></g>
<g><path style="opacity:0.852" fill="#b7b7b7" d="M 1077.5,1448.5 C 1078.68,1448.28 1079.68,1448.61 1080.5,1449.5C 1065.09,1462.71 1047.43,1471.88 1027.5,1477C 1023.2,1478.54 1018.86,1478.7 1014.5,1477.5C 1037.28,1471.27 1058.28,1461.6 1077.5,1448.5 Z"/></g>
<g><path style="opacity:0.847" fill="#b8b8b8" d="M 1243.5,1451.5 C 1267.83,1449.4 1290.83,1453.9 1312.5,1465C 1314.59,1466.04 1316.25,1467.54 1317.5,1469.5C 1317,1469.83 1316.5,1470.17 1316,1470.5C 1295.94,1461.25 1274.94,1455.92 1253,1454.5C 1245.68,1455.25 1238.34,1456.25 1231,1457.5C 1229.17,1456.99 1229.01,1456.16 1230.5,1455C 1234.92,1453.65 1239.25,1452.48 1243.5,1451.5 Z"/></g>
<g><path style="opacity:0.86" fill="#b7b7b7" d="M 1991.5,1451.5 C 1992.5,1451.5 1993.5,1451.5 1994.5,1451.5C 1994.68,1456.81 1993.51,1461.81 1991,1466.5C 1978.05,1487.13 1961.88,1504.96 1942.5,1520C 1940.61,1521.11 1938.61,1521.95 1936.5,1522.5C 1935.07,1522.27 1934.57,1521.6 1935,1520.5C 1954.47,1504.03 1971.47,1485.37 1986,1464.5C 1988.4,1460.37 1990.24,1456.03 1991.5,1451.5 Z"/></g>
<g><path style="opacity:0.863" fill="#b8b8b8" d="M 2098.5,1457.5 C 2099.69,1457.97 2100.36,1458.97 2100.5,1460.5C 2092.94,1503.56 2068.44,1531.89 2027,1545.5C 2026.17,1545.17 2025.33,1544.83 2024.5,1544.5C 2043.69,1535.48 2060.53,1523.14 2075,1507.5C 2086.86,1492.77 2094.7,1476.11 2098.5,1457.5 Z"/></g>
<g><path style="opacity:0.866" fill="#b7b7b7" d="M 1706.5,1619.5 C 1694.5,1619.5 1682.5,1619.5 1670.5,1619.5C 1724.86,1615.29 1770.7,1592.96 1808,1552.5C 1819.05,1540.07 1826.72,1525.73 1831,1509.5C 1834.85,1495.41 1832.02,1482.91 1822.5,1472C 1811.6,1463.15 1800.26,1462.48 1788.5,1470C 1782.91,1475.71 1783.24,1481.05 1789.5,1486C 1793.73,1487.94 1797.73,1490.11 1801.5,1492.5C 1793.45,1494.65 1786.61,1492.65 1781,1486.5C 1775.75,1474.48 1779.25,1465.98 1791.5,1461C 1820.54,1455.87 1835.87,1468.04 1837.5,1497.5C 1836.77,1513.51 1831.94,1528.18 1823,1541.5C 1793.43,1581.21 1754.6,1607.21 1706.5,1619.5 Z"/></g>
<g><path style="opacity:0.866" fill="#b6b6b6" d="M 623.5,1470.5 C 640.144,1477.16 657.477,1480.16 675.5,1479.5C 657.676,1483.72 640.676,1481.56 624.5,1473C 623.748,1472.33 623.414,1471.5 623.5,1470.5 Z"/></g>
<g><path style="opacity:0.842" fill="#b9b9b9" d="M 1580.5,1478.5 C 1591.51,1478.33 1602.51,1478.5 1613.5,1479C 1616.55,1479.18 1619.55,1479.68 1622.5,1480.5C 1621.97,1481.19 1621.31,1481.69 1620.5,1482C 1596.69,1481.79 1573.02,1483.46 1549.5,1487C 1542.44,1489.08 1535.44,1491.24 1528.5,1493.5C 1528.28,1492.32 1528.61,1491.32 1529.5,1490.5C 1545.83,1483.17 1562.83,1479.17 1580.5,1478.5 Z"/></g>
<g><path style="opacity:0.863" fill="#b8b8b8" d="M -0.5,1522.5 C -0.5,1521.17 -0.5,1519.83 -0.5,1518.5C 14.7952,1522.32 30.1285,1522.15 45.5,1518C 72.9539,1510.74 99.9539,1502.07 126.5,1492C 131.246,1490.46 136.079,1489.29 141,1488.5C 143.319,1489.41 143.986,1491.08 143,1493.5C 135.284,1498.22 129.284,1504.55 125,1512.5C 124.061,1519.25 126.894,1523.75 133.5,1526C 136.471,1526.79 139.471,1527.46 142.5,1528C 153.871,1528.22 165.205,1528.39 176.5,1528.5C 174.118,1530.07 171.451,1530.9 168.5,1531C 157.156,1532.9 145.823,1532.9 134.5,1531C 119.505,1526.07 116.339,1516.9 125,1503.5C 128.72,1499.97 131.887,1496.63 134.5,1493.5C 116.732,1499.37 99.0649,1505.53 81.5,1512C 61.7666,1519.18 41.4333,1523.35 20.5,1524.5C 13.4223,1524.53 6.42225,1523.86 -0.5,1522.5 Z"/></g>
<g><path style="opacity:0.867" fill="#b8b8b8" d="M 1714.5,1490.5 C 1717.67,1490.4 1720.67,1491.07 1723.5,1492.5C 1726.17,1497.36 1729.83,1501.2 1734.5,1504C 1741.13,1504.84 1747.8,1505.34 1754.5,1505.5C 1750.26,1509.15 1745.26,1510.82 1739.5,1510.5C 1733.53,1510.84 1728.53,1508.84 1724.5,1504.5C 1722.87,1501.4 1720.87,1498.57 1718.5,1496C 1717.5,1495.83 1716.5,1495.67 1715.5,1495.5C 1699.42,1499.69 1683.42,1504.19 1667.5,1509C 1661.04,1510.43 1654.54,1511.59 1648,1512.5C 1646.72,1512.39 1645.89,1511.72 1645.5,1510.5C 1668.82,1504.61 1691.82,1497.95 1714.5,1490.5 Z"/></g>
<g><path style="opacity:0.87" fill="#b8b8b8" d="M 2146.5,1494.5 C 2147.68,1494.28 2148.68,1494.61 2149.5,1495.5C 2143.89,1509.11 2133.89,1514.45 2119.5,1511.5C 2112,1522.31 2103.67,1532.48 2094.5,1542C 2090.17,1545.5 2085.51,1548.5 2080.5,1551C 2078.74,1551.8 2077.07,1551.63 2075.5,1550.5C 2083.31,1546.16 2090.14,1540.49 2096,1533.5C 2103.05,1523.91 2110.21,1514.41 2117.5,1505C 2122.83,1505 2128.17,1505 2133.5,1505C 2138.64,1502.44 2142.97,1498.94 2146.5,1494.5 Z"/></g>
<g><path style="opacity:0.831" fill="#b8b8b8" d="M 1072.5,1495.5 C 1076.17,1495.5 1079.83,1495.5 1083.5,1495.5C 1083.5,1496.5 1083.5,1497.5 1083.5,1498.5C 1056.22,1501.83 1028.89,1504.66 1001.5,1507C 988.73,1508.02 976.063,1507.36 963.5,1505C 960.924,1503.62 961.258,1502.78 964.5,1502.5C 977.814,1503.61 991.147,1503.78 1004.5,1503C 1027.36,1500.89 1050.03,1498.39 1072.5,1495.5 Z"/></g>
<g><path style="opacity:0.842" fill="#b8b8b8" d="M 861.5,1497.5 C 863.265,1500.39 864.432,1503.73 865,1507.5C 869.655,1513.76 875.822,1517.92 883.5,1520C 904.431,1525.71 925.764,1528.55 947.5,1528.5C 958.841,1527.92 970.175,1527.25 981.5,1526.5C 982.833,1526.83 984.167,1527.17 985.5,1527.5C 983.941,1529.13 981.941,1529.96 979.5,1530C 949.652,1533.98 919.985,1532.98 890.5,1527C 879.597,1524.8 870.43,1519.63 863,1511.5C 860.519,1506.99 860.019,1502.32 861.5,1497.5 Z"/></g>
<g><path style="opacity:0.848" fill="#b8b8b8" d="M 293.5,1498.5 C 295.288,1498.21 296.955,1498.55 298.5,1499.5C 282.531,1506.22 265.864,1508.72 248.5,1507C 246.381,1506.9 244.714,1506.07 243.5,1504.5C 260.584,1505.58 277.251,1503.58 293.5,1498.5 Z"/></g>
<g><path style="opacity:0.862" fill="#b8b8b8" d="M 1058.5,1619.5 C 1055.17,1619.5 1051.83,1619.5 1048.5,1619.5C 1066.88,1608.01 1083.38,1594.01 1098,1577.5C 1110.05,1563.12 1121.71,1548.45 1133,1533.5C 1139.5,1526.33 1146.33,1519.5 1153.5,1513C 1167.31,1501.56 1182.98,1497.39 1200.5,1500.5C 1182.99,1501.5 1167.66,1507.66 1154.5,1519C 1147.97,1525.2 1141.8,1531.7 1136,1538.5C 1120.37,1560.47 1102.87,1580.97 1083.5,1600C 1075.1,1606.52 1066.76,1613.02 1058.5,1619.5 Z"/></g>
<g><path style="opacity:0.862" fill="#b7b7b7" d="M 603.5,1505.5 C 606.32,1505.25 608.986,1505.75 611.5,1507C 630.22,1523.86 652.22,1533.02 677.5,1534.5C 658.95,1537.09 641.616,1533.59 625.5,1524C 619.127,1519.49 612.793,1514.99 606.5,1510.5C 598.42,1516.41 590.753,1522.91 583.5,1530C 544.196,1560.22 499.696,1577.05 450,1580.5C 442.786,1580.03 435.62,1579.19 428.5,1578C 425.749,1577.48 423.416,1576.32 421.5,1574.5C 422.167,1574.17 422.833,1573.83 423.5,1573.5C 447.836,1578.15 471.836,1576.65 495.5,1569C 537.32,1557.27 573.32,1536.11 603.5,1505.5 Z"/></g>
<g><path style="opacity:0.853" fill="#b7b7b7" d="M 397.5,1507.5 C 400.652,1506.96 403.152,1507.96 405,1510.5C 406.355,1515.38 408.855,1519.55 412.5,1523C 419.738,1525.7 427.071,1527.87 434.5,1529.5C 427.458,1530.84 420.458,1530.67 413.5,1529C 406.331,1525.82 402.164,1520.32 401,1512.5C 400.275,1511.94 399.442,1511.61 398.5,1511.5C 375.746,1521.03 352.413,1528.86 328.5,1535C 313.629,1538.4 298.629,1539.9 283.5,1539.5C 283.709,1538.91 284.043,1538.41 284.5,1538C 303.788,1536.29 322.788,1532.95 341.5,1528C 360.58,1521.94 379.247,1515.11 397.5,1507.5 Z"/></g>
<g><path style="opacity:0.87" fill="#b8b8b8" d="M 1204.5,1510.5 C 1206.05,1510.82 1206.71,1511.82 1206.5,1513.5C 1200.11,1514.39 1194.45,1516.89 1189.5,1521C 1175.15,1531.53 1165.65,1545.37 1161,1562.5C 1159.16,1578.98 1166.33,1589.14 1182.5,1593C 1202.44,1594.47 1217.94,1586.97 1229,1570.5C 1231.73,1566.57 1231.56,1563.07 1228.5,1560C 1224.46,1559.39 1220.46,1559.56 1216.5,1560.5C 1216.81,1557.65 1218.48,1556.15 1221.5,1556C 1235.05,1553.91 1239.55,1559.41 1235,1572.5C 1224.7,1589.99 1209.37,1598.99 1189,1599.5C 1162.24,1598 1151.24,1584 1156,1557.5C 1164.29,1533.5 1180.45,1517.84 1204.5,1510.5 Z"/></g>
<g><path style="opacity:0.845" fill="#bababa" d="M 774.5,1511.5 C 776.225,1511.84 776.725,1512.84 776,1514.5C 767.234,1522.25 757.234,1527.92 746,1531.5C 745.5,1531.17 745,1530.83 744.5,1530.5C 750.767,1527.03 757.1,1523.53 763.5,1520C 767.235,1517.15 770.902,1514.31 774.5,1511.5 Z"/></g>
<g><path style="opacity:0.859" fill="#b7b7b7" d="M 1549.5,1538.5 C 1551.35,1538.27 1552.19,1538.94 1552,1540.5C 1535.47,1551.79 1517.14,1557.45 1497,1557.5C 1473.55,1554.97 1450.05,1553.8 1426.5,1554C 1422.29,1554.6 1418.12,1555.43 1414,1556.5C 1413.17,1556.17 1412.33,1555.83 1411.5,1555.5C 1417.64,1551.97 1424.31,1550.13 1431.5,1550C 1452.53,1549.88 1473.53,1550.72 1494.5,1552.5C 1514.17,1552.67 1532.51,1548 1549.5,1538.5 Z"/></g>
<g><path style="opacity:0.844" fill="#b6b6b6" d="M 1613.5,1541.5 C 1617.85,1541.32 1621.18,1543.15 1623.5,1547C 1625.21,1547.2 1626.87,1547.2 1628.5,1547C 1629.83,1548 1629.83,1549 1628.5,1550C 1625.97,1551.42 1623.3,1551.75 1620.5,1551C 1618.59,1549.3 1616.59,1547.8 1614.5,1546.5C 1602.7,1552.07 1590.7,1557.07 1578.5,1561.5C 1578.33,1560.18 1578.66,1559.01 1579.5,1558C 1591.05,1552.73 1602.38,1547.23 1613.5,1541.5 Z"/></g>
<g><path style="opacity:0.869" fill="#b8b8b8" d="M 1983.5,1544.5 C 1985.23,1544.84 1985.73,1545.84 1985,1547.5C 1965,1570.5 1939.67,1583.17 1909,1585.5C 1906.5,1585.33 1904,1585.17 1901.5,1585C 1900.19,1583.61 1900.52,1582.61 1902.5,1582C 1933.67,1578.08 1960.67,1565.58 1983.5,1544.5 Z"/></g>
<g><path style="opacity:0.876" fill="#b8b8b8" d="M 1245.5,1550.5 C 1257.76,1552.1 1264.1,1559.1 1264.5,1571.5C 1263.6,1578.33 1262.6,1585.16 1261.5,1592C 1263.17,1602.66 1269.5,1607.99 1280.5,1608C 1291.04,1608.45 1301.37,1607.11 1311.5,1604C 1335.36,1595.57 1358.36,1585.24 1380.5,1573C 1381.94,1572.22 1383.28,1572.39 1384.5,1573.5C 1358.52,1593.15 1329.52,1606.32 1297.5,1613C 1290.17,1613.67 1282.83,1613.67 1275.5,1613C 1263.75,1611.32 1257.41,1604.66 1256.5,1593C 1257.06,1587.79 1257.9,1582.62 1259,1577.5C 1261.97,1565.09 1257.47,1557.09 1245.5,1553.5C 1245.5,1552.5 1245.5,1551.5 1245.5,1550.5 Z"/></g>
<g><path style="opacity:0.837" fill="#b8b8b8" d="M 841.5,1554.5 C 846.32,1558.48 851.32,1562.31 856.5,1566C 864.088,1568.38 871.755,1570.38 879.5,1572C 865.167,1574.44 853,1570.28 843,1559.5C 841.991,1557.98 841.491,1556.31 841.5,1554.5 Z"/></g>
<g><path style="opacity:0.859" fill="#b7b7b7" d="M 415.5,1619.5 C 413.833,1619.5 412.167,1619.5 410.5,1619.5C 385.526,1587.33 352.859,1575.17 312.5,1583C 282.752,1588.21 256.418,1600.38 233.5,1619.5C 231.5,1619.5 229.5,1619.5 227.5,1619.5C 249.441,1599.53 275.108,1586.36 304.5,1580C 325.601,1575.01 346.601,1575.34 367.5,1581C 388.412,1587.75 404.412,1600.58 415.5,1619.5 Z"/></g>
<g><path style="opacity:0.845" fill="#b8b8b8" d="M 2015.5,1581.5 C 2017.46,1581.95 2017.8,1582.95 2016.5,1584.5C 2005.03,1589.64 1997.03,1597.97 1992.5,1609.5C 1991.3,1608.44 1990.64,1607.11 1990.5,1605.5C 1994.26,1592.74 2002.59,1584.74 2015.5,1581.5 Z"/></g>
<g><path style="opacity:0.867" fill="#b7b7b7" d="M 791.5,1583.5 C 800.747,1589.54 810.413,1595.04 820.5,1600C 856.207,1611.75 892.207,1612.59 928.5,1602.5C 929.737,1602.56 930.737,1603.06 931.5,1604C 928.058,1607.05 924.058,1609.05 919.5,1610C 890.091,1617.33 860.757,1616.99 831.5,1609C 815.497,1604.84 801.831,1596.84 790.5,1585C 791.056,1584.62 791.389,1584.12 791.5,1583.5 Z"/></g>
<g><path style="opacity:0.85" fill="#b8b8b8" d="M 1549.5,1585.5 C 1564.51,1585.7 1579.51,1586.2 1594.5,1587C 1595.94,1587.22 1597.27,1587.72 1598.5,1588.5C 1597.97,1589.19 1597.31,1589.69 1596.5,1590C 1578.9,1591.29 1561.23,1591.96 1543.5,1592C 1520.81,1593.83 1500.14,1601.17 1481.5,1614C 1482.83,1615 1482.83,1616 1481.5,1617C 1479.87,1617.49 1478.2,1617.66 1476.5,1617.5C 1477.32,1613.15 1479.65,1609.65 1483.5,1607C 1503.78,1594.29 1525.78,1587.13 1549.5,1585.5 Z"/></g>
<g><path style="opacity:0.857" fill="#b6b6b6" d="M 1420.5,1586.5 C 1434.93,1585.13 1448.6,1587.63 1461.5,1594C 1464.03,1595.32 1464.03,1596.48 1461.5,1597.5C 1436.14,1587.26 1411.47,1588.6 1387.5,1601.5C 1387.92,1599.09 1389.25,1597.26 1391.5,1596C 1400.74,1591.12 1410.4,1587.95 1420.5,1586.5 Z"/></g>
<g><path style="opacity:0.87" fill="#b7b7b7" d="M 660.5,1619.5 C 658.167,1619.5 655.833,1619.5 653.5,1619.5C 665.539,1609.97 676.872,1599.47 687.5,1588C 689.441,1587.26 691.274,1587.42 693,1588.5C 697.26,1600.43 705.427,1608.26 717.5,1612C 724.798,1613.02 732.131,1613.85 739.5,1614.5C 716.719,1622.34 700.052,1615.34 689.5,1593.5C 679.89,1602.1 670.224,1610.77 660.5,1619.5 Z"/></g>
<g><path style="opacity:0.865" fill="#b7b7b7" d="M 1699.5,1589.5 C 1703.14,1589.66 1703.47,1590.82 1700.5,1593C 1696.04,1595.23 1691.37,1596.9 1686.5,1598C 1670.81,1598.3 1655.15,1597.8 1639.5,1596.5C 1632.81,1596.61 1626.15,1596.94 1619.5,1597.5C 1619.5,1596.5 1619.5,1595.5 1619.5,1594.5C 1638.8,1592.04 1658.14,1592.04 1677.5,1594.5C 1685.31,1594.38 1692.64,1592.71 1699.5,1589.5 Z"/></g>
<g><path style="opacity:0.852" fill="#b8b8b8" d="M 405.5,1619.5 C 402.833,1619.5 400.167,1619.5 397.5,1619.5C 388.815,1612.23 379.148,1610.73 368.5,1615C 366.382,1616.05 364.716,1617.55 363.5,1619.5C 361.5,1619.5 359.5,1619.5 357.5,1619.5C 363.03,1611.99 370.53,1608.32 380,1608.5C 390.069,1608.79 398.569,1612.46 405.5,1619.5 Z"/></g>
</svg>
