<?xml version="1.0" encoding="UTF-8"?>
<!DOCTYPE svg PUBLIC "-//W3C//DTD SVG 1.1//EN" "http://www.w3.org/Graphics/SVG/1.1/DTD/svg11.dtd">
<svg xmlns="http://www.w3.org/2000/svg" version="1.1" width="2160px" height="1620px" style="shape-rendering:geometricPrecision; text-rendering:geometricPrecision; image-rendering:optimizeQuality; fill-rule:evenodd; clip-rule:evenodd" xmlns:xlink="http://www.w3.org/1999/xlink">
<g><path style="opacity:0.996" fill="#7297bc" d="M 796.5,1380.5 C 790.493,1377.56 784.16,1375.06 777.5,1373C 713.457,1355.96 648.457,1350.96 582.5,1358C 570.167,1360 558.167,1363.16 546.5,1367.5C 542.869,1366.48 542.536,1364.65 545.5,1362C 582.106,1345.73 620.606,1337.56 661,1337.5C 721.403,1339.65 780.236,1350.15 837.5,1369C 850.76,1371.66 864.093,1373.99 877.5,1376C 935.315,1382.32 978.148,1360.48 1006,1310.5C 1026.18,1268.04 1031.51,1223.7 1022,1177.5C 1015.62,1153.48 1003.79,1132.65 986.5,1115C 967.033,1098.45 944.366,1089.28 918.5,1087.5C 913.745,1086.06 908.745,1085.39 903.5,1085.5C 880.901,1086.72 859.567,1092.55 839.5,1103C 824.977,1110.19 812.143,1119.69 801,1131.5C 798.429,1133.98 796.929,1136.98 796.5,1140.5C 791.297,1142.11 786.297,1141.61 781.5,1139C 778.264,1135.32 775.764,1131.15 774,1126.5C 772.358,1113.46 773.691,1100.8 778,1088.5C 783.031,1077.75 789.531,1068.08 797.5,1059.5C 839.37,1020.1 889.37,1003.6 947.5,1010C 980.48,1014.23 1007.65,1028.73 1029,1053.5C 1032.84,1060.46 1036.34,1067.46 1039.5,1074.5C 1039.41,1078.22 1039.24,1081.89 1039,1085.5C 1040.49,1086.75 1041.99,1086.75 1043.5,1085.5C 1046.78,1079.39 1049.61,1073.05 1052,1066.5C 1060.67,1007.72 1040.5,962.215 991.5,930C 956.751,911.708 919.751,905.374 880.5,911C 815.872,921.184 765.038,952.684 728,1005.5C 714.004,1027.81 705.338,1052.15 702,1078.5C 701.333,1085.83 701.333,1093.17 702,1100.5C 703.518,1107.12 704.851,1113.79 706,1120.5C 707.903,1127.29 710.069,1133.96 712.5,1140.5C 712.083,1141.12 711.416,1141.46 710.5,1141.5C 708.864,1140.7 707.364,1139.7 706,1138.5C 688.027,1101.95 681.361,1063.28 686,1022.5C 695.228,966.237 721.394,920.071 764.5,884C 833.006,831.82 910.339,812.82 996.5,827C 1039.47,835.206 1078.8,851.539 1114.5,876C 1129.97,887.81 1144.14,900.977 1157,915.5C 1207.55,990.018 1228.88,1072.35 1221,1162.5C 1215.91,1219.22 1199.24,1272.22 1171,1321.5C 1117.31,1393.52 1050.48,1450.02 970.5,1491C 961.182,1494.66 951.849,1498.32 942.5,1502C 912.818,1510.56 882.484,1515.56 851.5,1517C 827.911,1518.07 804.578,1516.07 781.5,1511C 768.382,1510.48 755.382,1508.98 742.5,1506.5C 739.814,1507.01 737.147,1507.18 734.5,1507C 732.408,1506.05 732.075,1504.71 733.5,1503C 745.71,1496.15 758.877,1492.32 773,1491.5C 803.856,1494.3 834.689,1494.13 865.5,1491C 879.508,1487.98 892.841,1483.32 905.5,1477C 891.108,1481.12 876.441,1484.45 861.5,1487C 807.933,1493.1 755.6,1487.76 704.5,1471C 698.319,1468.42 691.986,1466.08 685.5,1464C 658.399,1451.37 631.065,1439.04 603.5,1427C 557.801,1410.14 510.634,1403.97 462,1408.5C 460.049,1408.11 458.549,1407.11 457.5,1405.5C 461.321,1402.42 465.321,1399.59 469.5,1397C 494.442,1384.26 520.775,1375.26 548.5,1370C 617.169,1357.35 685.836,1357.35 754.5,1370C 768.497,1373.61 782.497,1377.11 796.5,1380.5 Z M 796.5,1380.5 C 799.481,1380.18 801.815,1381.18 803.5,1383.5C 800.759,1383.29 798.426,1382.29 796.5,1380.5 Z"/></g>
<g><path style="opacity:0.997" fill="#5271a2" d="M 1039.5,1074.5 C 1040.46,1011.6 1011.46,969.763 952.5,949C 923.839,941.727 895.172,941.727 866.5,949C 801.035,968.914 754.868,1010.08 728,1072.5C 720.21,1094.12 716.544,1116.45 717,1139.5C 720.288,1142.24 721.122,1145.57 719.5,1149.5C 719.167,1149.33 718.833,1149.17 718.5,1149C 716.601,1146.01 714.601,1143.18 712.5,1140.5C 710.069,1133.96 707.903,1127.29 706,1120.5C 704.851,1113.79 703.518,1107.12 702,1100.5C 701.333,1093.17 701.333,1085.83 702,1078.5C 705.338,1052.15 714.004,1027.81 728,1005.5C 765.038,952.684 815.872,921.184 880.5,911C 919.751,905.374 956.751,911.708 991.5,930C 1040.5,962.215 1060.67,1007.72 1052,1066.5C 1049.61,1073.05 1046.78,1079.39 1043.5,1085.5C 1041.99,1086.75 1040.49,1086.75 1039,1085.5C 1039.24,1081.89 1039.41,1078.22 1039.5,1074.5 Z"/></g>
<g><path style="opacity:0.995" fill="#5270a2" d="M 918.5,1087.5 C 918.5,1088.5 918.5,1089.5 918.5,1090.5C 912.007,1090.72 905.673,1091.88 899.5,1094C 888.066,1099.89 877.066,1106.55 866.5,1114C 850.657,1127.83 833.657,1140.16 815.5,1151C 810.484,1152.92 805.484,1152.92 800.5,1151C 797.369,1148.22 796.036,1144.72 796.5,1140.5C 796.929,1136.98 798.429,1133.98 801,1131.5C 812.143,1119.69 824.977,1110.19 839.5,1103C 859.567,1092.55 880.901,1086.72 903.5,1085.5C 908.745,1085.39 913.745,1086.06 918.5,1087.5 Z"/></g>
<g><path style="opacity:0.974" fill="#6281b0" d="M 885.5,1141.5 C 887.635,1141.15 888.968,1141.98 889.5,1144C 886.112,1148.48 883.279,1153.31 881,1158.5C 880.497,1163.19 879.83,1167.86 879,1172.5C 878.422,1187.21 878.755,1201.88 880,1216.5C 878.309,1221.81 875.809,1226.65 872.5,1231C 861.362,1237.01 853.529,1234.17 849,1222.5C 846.655,1215.33 845.989,1208 847,1200.5C 851.41,1183.35 859.243,1168.01 870.5,1154.5C 875.008,1149.44 880.008,1145.11 885.5,1141.5 Z"/></g>
<g><path style="opacity:0.997" fill="#86abd3" d="M 173.5,1619.5 C 162.167,1619.5 150.833,1619.5 139.5,1619.5C 126.648,1556.99 133.148,1496.65 159,1438.5C 190.15,1374.7 235.317,1323.53 294.5,1285C 376.906,1232.5 467.573,1206 566.5,1205.5C 651.46,1205.48 730.46,1226.15 803.5,1267.5C 816.058,1275.06 828.058,1283.4 839.5,1292.5C 840.429,1293.69 840.762,1295.02 840.5,1296.5C 863.633,1304.83 883.133,1318.5 899,1337.5C 903.698,1344.06 907.198,1351.23 909.5,1359C 907.873,1362.3 906.373,1362.13 905,1358.5C 903.23,1359.28 901.397,1359.11 899.5,1358C 850.897,1333.59 799.231,1319.59 744.5,1316C 680.426,1313.01 617.426,1319.68 555.5,1336C 427.846,1370.86 320.013,1437.03 232,1534.5C 209.986,1561.22 190.486,1589.56 173.5,1619.5 Z M 769.5,1271.5 C 714.157,1259.22 658.157,1255.06 601.5,1259C 570.353,1261.72 539.686,1267.05 509.5,1275C 496.96,1279.21 484.626,1283.88 472.5,1289C 465.942,1293.11 459.275,1296.94 452.5,1300.5C 454.239,1297.59 456.572,1295.09 459.5,1293C 486.958,1274.94 516.958,1262.27 549.5,1255C 610.217,1241.08 670.884,1241.08 731.5,1255C 741.719,1258.26 751.719,1261.92 761.5,1266C 764.483,1267.64 767.149,1269.47 769.5,1271.5 Z M 452.5,1300.5 C 451.564,1301.97 450.23,1302.97 448.5,1303.5C 448.694,1301.09 450.027,1300.09 452.5,1300.5 Z"/></g>
<g><path style="opacity:0.982" fill="#7298bd" d="M 122.5,1619.5 C 111.167,1619.5 99.8333,1619.5 88.5,1619.5C 85.9298,1579.46 92.7631,1541.12 109,1504.5C 113.194,1497.45 116.861,1490.11 120,1482.5C 124.426,1476.41 128.426,1470.08 132,1463.5C 133.413,1461.59 135.247,1460.25 137.5,1459.5C 138.946,1460.17 139.612,1461.34 139.5,1463C 133.869,1478.03 130.035,1493.53 128,1509.5C 127.691,1538.17 127.691,1566.84 128,1595.5C 127.667,1598.83 127.333,1602.17 127,1605.5C 124.993,1610.02 123.493,1614.69 122.5,1619.5 Z"/></g>
</svg>
