<?xml version="1.0" encoding="UTF-8"?>
<!DOCTYPE svg PUBLIC "-//W3C//DTD SVG 1.1//EN" "http://www.w3.org/Graphics/SVG/1.1/DTD/svg11.dtd">
<svg xmlns="http://www.w3.org/2000/svg" version="1.1" width="2160px" height="1620px" style="shape-rendering:geometricPrecision; text-rendering:geometricPrecision; image-rendering:optimizeQuality; fill-rule:evenodd; clip-rule:evenodd" xmlns:xlink="http://www.w3.org/1999/xlink">
<g><path style="opacity:0.999" fill="#406094" d="M -0.5,1167.5 C 11.7556,1183.25 26.4223,1196.42 43.5,1207C 89.4412,1233.16 138.775,1249.16 191.5,1255C 217.045,1259.4 242.712,1260.4 268.5,1258C 314.737,1248.39 361.07,1239.22 407.5,1230.5C 492.251,1212.47 566.084,1232.81 629,1291.5C 630.184,1294.78 631.517,1297.78 633,1300.5C 626.432,1300.82 619.932,1302.32 613.5,1305C 569.257,1324.87 530.091,1352.04 496,1386.5C 486.027,1397.78 477.027,1409.78 469,1422.5C 468.018,1423.76 467.685,1425.09 468,1426.5C 503.415,1411.44 540.248,1401.27 578.5,1396C 619.31,1390.2 660.31,1388.2 701.5,1390C 746.913,1392.64 792.247,1396.31 837.5,1401C 997.089,1417.97 1115.26,1356.8 1192,1217.5C 1194.27,1216.27 1196.1,1214.61 1197.5,1212.5C 1198.58,1213.36 1198.75,1214.36 1198,1215.5C 1163.87,1290.5 1179.37,1353 1244.5,1403C 1290.78,1435.15 1342.11,1453.32 1398.5,1457.5C 1423.11,1456.76 1446.11,1450.26 1467.5,1438C 1483.13,1428.05 1497.29,1416.22 1510,1402.5C 1510.48,1401.55 1510.65,1400.55 1510.5,1399.5C 1540.99,1382.87 1573.66,1373.04 1608.5,1370C 1627.15,1368.56 1645.81,1368.22 1664.5,1369C 1701.94,1371.97 1739.27,1375.97 1776.5,1381C 1803.26,1383.51 1829.93,1382.85 1856.5,1379C 1876.1,1375.02 1895.43,1370.02 1914.5,1364C 1939.97,1349.17 1962.47,1330.67 1982,1308.5C 1999.77,1287.96 2011.43,1264.3 2017,1237.5C 2020.58,1219.45 2013.41,1208.95 1995.5,1206C 1983.33,1204.49 1972.17,1206.99 1962,1213.5C 1959.22,1212.69 1956.38,1212.69 1953.5,1213.5C 1953.08,1210.68 1954.08,1208.51 1956.5,1207C 1976.07,1200.14 1995.73,1193.48 2015.5,1187C 2063.18,1174.83 2111.18,1173.33 2159.5,1182.5C 2159.5,1328.17 2159.5,1473.83 2159.5,1619.5C 1439.5,1619.5 719.5,1619.5 -0.5,1619.5C -0.5,1468.83 -0.5,1318.17 -0.5,1167.5 Z"/></g>
</svg>
