<?xml version="1.0" encoding="UTF-8"?>
<!DOCTYPE svg PUBLIC "-//W3C//DTD SVG 1.1//EN" "http://www.w3.org/Graphics/SVG/1.1/DTD/svg11.dtd">
<svg xmlns="http://www.w3.org/2000/svg" version="1.1" width="2160px" height="1620px" style="shape-rendering:geometricPrecision; text-rendering:geometricPrecision; image-rendering:optimizeQuality; fill-rule:evenodd; clip-rule:evenodd" xmlns:xlink="http://www.w3.org/1999/xlink">
<g><path style="opacity:0.99" fill="#85abd4" d="M 2159.5,961.5 C 2159.5,986.5 2159.5,1011.5 2159.5,1036.5C 2147.58,1025.63 2133.42,1020.63 2117,1021.5C 2101.91,1021.99 2087.08,1024.15 2072.5,1028C 2065.04,1030.79 2058.04,1034.46 2051.5,1039C 2050.18,1039.82 2049.51,1040.98 2049.5,1042.5C 2034.23,1052.26 2020.56,1064.09 2008.5,1078C 2005.97,1079.42 2003.3,1079.75 2000.5,1079C 1999.38,1072.33 2000.88,1066.16 2005,1060.5C 2017.46,1041.71 2032.96,1025.88 2051.5,1013C 2084.47,989.682 2120.47,972.516 2159.5,961.5 Z"/></g>
<g><path style="opacity:0.971" fill="#86acd4" d="M 2005.5,1012.5 C 2007.69,1012.51 2008.52,1013.51 2008,1015.5C 2001.33,1019.5 1996,1024.83 1992,1031.5C 1985.28,1044.33 1978.95,1057.33 1973,1070.5C 1970.32,1074.93 1966.48,1076.76 1961.5,1076C 1958.63,1071.76 1958.13,1067.26 1960,1062.5C 1968.56,1039.65 1983.72,1022.98 2005.5,1012.5 Z"/></g>
<g><path style="opacity:0.988" fill="#7298bd" d="M 2159.5,1036.5 C 2159.5,1068.17 2159.5,1099.83 2159.5,1131.5C 2153.58,1145.35 2147.08,1159.02 2140,1172.5C 2139.33,1173.25 2138.5,1173.59 2137.5,1173.5C 2144.27,1150.3 2148.61,1126.64 2150.5,1102.5C 2145.68,1063.35 2123.68,1041.68 2084.5,1037.5C 2072.92,1038.2 2061.59,1040.2 2050.5,1043.5C 2049.89,1043.38 2049.56,1043.04 2049.5,1042.5C 2049.51,1040.98 2050.18,1039.82 2051.5,1039C 2058.04,1034.46 2065.04,1030.79 2072.5,1028C 2087.08,1024.15 2101.91,1021.99 2117,1021.5C 2133.42,1020.63 2147.58,1025.63 2159.5,1036.5 Z"/></g>
<g><path style="opacity:0.988" fill="#86acd4" d="M 2159.5,1131.5 C 2159.5,1164.17 2159.5,1196.83 2159.5,1229.5C 2127.8,1263.7 2091.8,1292.53 2051.5,1316C 2033.52,1325.66 2014.69,1333.16 1995,1338.5C 1993.72,1338.39 1992.89,1337.72 1992.5,1336.5C 2048.58,1296.59 2094.42,1247.25 2130,1188.5C 2132.53,1183.45 2135.03,1178.45 2137.5,1173.5C 2138.5,1173.59 2139.33,1173.25 2140,1172.5C 2147.08,1159.02 2153.58,1145.35 2159.5,1131.5 Z"/></g>
</svg>
