<?xml version="1.0" encoding="UTF-8"?>
<!DOCTYPE svg PUBLIC "-//W3C//DTD SVG 1.1//EN" "http://www.w3.org/Graphics/SVG/1.1/DTD/svg11.dtd">
<svg xmlns="http://www.w3.org/2000/svg" version="1.1" width="2160px" height="1620px" style="shape-rendering:geometricPrecision; text-rendering:geometricPrecision; image-rendering:optimizeQuality; fill-rule:evenodd; clip-rule:evenodd" xmlns:xlink="http://www.w3.org/1999/xlink">
<g><path style="opacity:0.98" fill="#86acd3" d="M 219.5,653.5 C 225.176,653.334 230.843,653.501 236.5,654C 239.553,655.581 240.22,657.914 238.5,661C 220.971,663.943 204.305,669.109 188.5,676.5C 181.506,679.263 174.173,682.429 166.5,686C 166.833,686.333 167.167,686.667 167.5,687C 162.341,689.412 157.341,692.079 152.5,695C 145.144,701.351 137.478,707.351 129.5,713C 122.791,720.22 115.958,727.387 109,734.5C 105.966,740.209 102.133,745.375 97.5,750C 97.8333,750.333 98.1667,750.667 98.5,751C 96.2121,753.743 94.0455,756.577 92,759.5C 67.6531,803.053 57.8198,849.72 62.5,899.5C 62.541,910.693 63.8743,921.86 66.5,933C 66.3552,933.772 66.0219,934.439 65.5,935C 72.832,967.663 83.332,999.163 97,1029.5C 135.311,1105.99 188.477,1170.32 256.5,1222.5C 257.382,1223.76 258.382,1224.93 259.5,1226C 258.892,1226.87 258.059,1227.37 257,1227.5C 249.295,1227.34 241.795,1225.51 234.5,1222C 223.977,1216.15 213.977,1209.48 204.5,1202C 141.574,1147.31 90.0741,1083.48 50,1010.5C 45.3095,1000.79 41.4762,990.793 38.5,980.5C 38.8333,979.833 39.1667,979.167 39.5,978.5C 47.8272,989 55.9939,999.667 64,1010.5C 66.854,1012.6 69.5206,1014.93 72,1017.5C 72.1667,1017.17 72.3333,1016.83 72.5,1016.5C 43.9274,956.476 31.5941,895.309 35.5,833C 36.1667,831 36.8333,829 37.5,827C 37.5,824 37.5,821 37.5,818C 38.9899,813.373 40.3232,808.707 41.5,804C 41.1667,803.667 40.8333,803.333 40.5,803C 46.9252,777.242 57.7586,752.742 73,729.5C 79.7508,722.258 86.2508,714.924 92.5,707.5C 98.9811,702.187 105.314,696.687 111.5,691C 118.882,686.328 126.215,681.662 133.5,677C 143.007,673.387 152.341,669.387 161.5,665C 169.173,663.374 176.673,661.207 184,658.5C 195.912,656.347 207.746,654.681 219.5,653.5 Z"/></g>
<g><path style="opacity:0.985" fill="#7297bc" d="M 193.5,789.5 C 190.536,791.962 187.703,794.629 185,797.5C 173.188,812.91 162.688,828.743 153.5,845C 153.833,845.333 154.167,845.667 154.5,846C 151.072,850.948 148.406,856.281 146.5,862C 146.833,862.333 147.167,862.667 147.5,863C 146.058,866.939 144.391,870.773 142.5,874.5C 142.709,875.086 143.043,875.586 143.5,876C 140.962,882.645 138.962,889.479 137.5,896.5C 137.587,898.703 137.587,900.87 137.5,903C 136.833,904 136.167,905 135.5,906C 134.286,925.462 134.286,945.128 135.5,965C 142.53,1006.31 156.364,1045.14 177,1081.5C 200.256,1120.42 228.923,1154.75 263,1184.5C 264.903,1186.44 265.736,1188.77 265.5,1191.5C 263.801,1191.66 262.134,1191.49 260.5,1191C 195.23,1151.07 147.063,1096.24 116,1026.5C 98.8795,982.644 91.0461,937.81 92.5,892C 93.7629,884.182 95.0962,876.348 96.5,868.5C 95.6527,866.939 95.9861,865.439 97.5,864C 96.7865,862.657 97.1198,861.324 98.5,860C 106.702,815.585 128.369,775.918 163.5,741C 212.856,697.669 270.689,676.835 337,678.5C 348.855,678.526 360.688,679.026 372.5,680C 382.411,682.13 392.411,683.797 402.5,685C 423.675,690.526 444.342,697.359 464.5,705.5C 477.323,711.745 489.99,718.245 502.5,725C 508.44,730.726 507.273,734.559 499,736.5C 459.595,725.916 419.428,720.249 378.5,719.5C 314.995,719.734 258.662,737.901 209.5,774C 203.942,778.944 198.608,784.11 193.5,789.5 Z"/></g>
<g><path style="opacity:0.962" fill="#7297bc" d="M 380.5,767.5 C 388.221,767.097 395.554,768.597 402.5,772C 406.413,775.214 406.413,778.38 402.5,781.5C 398.154,783.59 393.654,785.257 389,786.5C 375.504,785.518 362.004,784.518 348.5,783.5C 348.215,781.712 348.548,780.045 349.5,778.5C 359.609,773.8 369.943,770.133 380.5,767.5 Z"/></g>
<g><path style="opacity:0.004" fill="#000000" d="M 193.5,789.5 C 194.833,790.167 194.833,790.167 193.5,789.5 Z"/></g>
<g><path style="opacity:0.987" fill="#7297bd" d="M 303.5,789.5 C 306.174,789.887 308.507,790.887 310.5,792.5C 270.873,823.996 244.206,863.829 230.5,912C 229.5,913.667 228.5,915.333 227.5,917C 227.327,919.26 227.327,921.593 227.5,924C 225.623,928.89 223.957,933.89 222.5,939C 223.022,939.561 223.355,940.228 223.5,941C 214.421,984.65 221.921,1025.82 246,1064.5C 248.374,1066.54 250.374,1068.87 252,1071.5C 250.17,1060.7 249.003,1049.87 248.5,1039C 246.941,981.987 267.608,933.32 310.5,893C 316.477,888.699 322.477,884.365 328.5,880C 335.123,877.022 341.457,873.522 347.5,869.5C 348.086,869.709 348.586,870.043 349,870.5C 355.503,866.611 362.336,864.278 369.5,863.5C 405.871,853.781 440.204,858.614 472.5,878C 474.5,878.333 476.5,878.667 478.5,879C 479.337,880.011 479.67,881.178 479.5,882.5C 478.167,882.5 476.833,882.5 475.5,882.5C 475.5,883.5 475.5,884.5 475.5,885.5C 473.099,884.951 470.765,884.118 468.5,883C 463.525,882.833 458.692,882.667 454,882.5C 443.211,882.922 432.544,884.922 422,888.5C 416.054,888.577 410.387,890.244 405,893.5C 404.667,893.167 404.333,892.833 404,892.5C 354.852,912.295 321.852,946.628 305,995.5C 289.649,1053.26 302.649,1104.6 344,1149.5C 376.981,1180.72 416.148,1197.55 461.5,1200C 463.325,1201.47 463.825,1203.3 463,1205.5C 457.894,1207.69 452.894,1209.35 448,1210.5C 381.249,1217.8 321.416,1199.3 268.5,1155C 206.125,1099.32 175.792,1030.32 177.5,948C 179.328,934.921 181.828,921.421 185,907.5C 202.521,850.296 239.855,811.296 297,790.5C 297.414,790.957 297.914,791.291 298.5,791.5C 300.336,790.972 302.003,790.306 303.5,789.5 Z"/></g>
<g><path style="opacity:0.983" fill="#7298bd" d="M 422.5,793.5 C 447.638,793.339 471.972,797.506 495.5,806C 512.281,813.053 526.114,823.886 537,838.5C 540.73,842.972 543.73,847.972 546,853.5C 547.736,861.191 545.236,867.024 538.5,871C 533.665,872.867 528.665,874.034 523.5,874.5C 508.969,872.822 495.136,868.822 482,862.5C 453.596,843.583 422.429,831.083 388.5,825C 363.625,823.928 339.292,826.761 315.5,833.5C 311.188,833.098 307.188,834.265 303.5,837C 301.527,837.495 299.527,837.662 297.5,837.5C 297.343,836.127 297.51,834.793 298,833.5C 311.806,823.095 326.806,814.762 343,808.5C 355.787,805.066 369.287,801.566 383.5,798C 387.204,796.929 390.871,796.762 394.5,797.5C 395.594,795.697 397.261,795.364 399.5,796.5C 407.308,795.44 414.975,794.44 422.5,793.5 Z"/></g>
<g><path style="opacity:0.961" fill="#7197bc" d="M 21.5,879.5 C 24.7845,879.269 27.2845,880.603 29,883.5C 31.3383,890.521 33.1717,897.687 34.5,905C 34.5214,917.03 34.1881,929.197 33.5,941.5C 34.1898,949.615 35.5232,957.615 37.5,965.5C 34.7081,965.548 32.8747,964.215 32,961.5C 31.4079,957.724 30.4079,954.057 29,950.5C 19.6121,930.876 15.1121,910.376 15.5,889C 17.1247,888.147 17.4581,887.147 16.5,886C 17.1157,882.896 18.7823,880.729 21.5,879.5 Z"/></g>
<g><path style="opacity:0.984" fill="#5a8cbd" d="M 443.5,895.5 C 455.189,895.446 466.856,895.946 478.5,897C 489.59,900.251 499.09,906.085 507,914.5C 518.598,937.379 512.931,954.046 490,964.5C 489.586,964.043 489.086,963.709 488.5,963.5C 483.235,965.485 477.902,966.151 472.5,965.5C 466.833,964.333 461.167,963.167 455.5,962C 438.536,954.177 420.869,948.677 402.5,945.5C 399.352,946.212 396.186,946.879 393,947.5C 389.081,946.929 385.247,947.595 381.5,949.5C 370.435,951.359 360.435,956.026 351.5,963.5C 348.708,966.959 346.708,970.459 345.5,974C 342.975,974.896 340.808,974.396 339,972.5C 338.333,969.833 338.333,967.167 339,964.5C 342.15,959.391 345.484,954.391 349,949.5C 367.559,930.336 388.725,915.169 412.5,904C 419.148,902.228 425.648,900.062 432,897.5C 432.414,897.957 432.914,898.291 433.5,898.5C 437.02,897.74 440.353,896.74 443.5,895.5 Z"/></g>
</svg>
