<?xml version="1.0" encoding="UTF-8"?>
<!DOCTYPE svg PUBLIC "-//W3C//DTD SVG 1.1//EN" "http://www.w3.org/Graphics/SVG/1.1/DTD/svg11.dtd">
<svg xmlns="http://www.w3.org/2000/svg" version="1.1" width="2160px" height="1620px" style="shape-rendering:geometricPrecision; text-rendering:geometricPrecision; image-rendering:optimizeQuality; fill-rule:evenodd; clip-rule:evenodd" xmlns:xlink="http://www.w3.org/1999/xlink">
<g><path style="opacity:0.994" fill="#86acd4" d="M 1783.5,1346.5 C 1771.95,1348.53 1760.28,1349.03 1748.5,1348C 1720.9,1342.13 1694.23,1333.47 1668.5,1322C 1650.74,1312.79 1632.74,1304.12 1614.5,1296C 1581.14,1272.31 1545.8,1251.64 1508.5,1234C 1493.27,1223.92 1477.93,1214.08 1462.5,1204.5C 1424.22,1174.39 1392.06,1138.72 1366,1097.5C 1339.9,1054.43 1328.57,1007.76 1332,957.5C 1337.47,910.895 1356.14,870.561 1388,836.5C 1427.1,797.187 1472.93,768.354 1525.5,750C 1551.42,741.69 1577.75,739.19 1604.5,742.5C 1603.88,744.754 1602.54,746.421 1600.5,747.5C 1597.23,746.415 1593.89,746.248 1590.5,747C 1541.83,759.194 1497.83,780.527 1458.5,811C 1393.9,867.824 1374.07,937.657 1399,1020.5C 1411.19,1057.23 1428.86,1090.9 1452,1121.5C 1472.16,1147.51 1494.33,1171.84 1518.5,1194.5C 1500.07,1165.3 1484.9,1133.96 1473,1100.5C 1454.52,1046.37 1449.52,991.037 1458,934.5C 1467.1,879.764 1492.6,834.597 1534.5,799C 1577.26,767.307 1625.26,754.307 1678.5,760C 1741.06,767.956 1795.4,793.123 1841.5,835.5C 1840.56,836.553 1839.4,837.22 1838,837.5C 1787.18,813.134 1735.02,809.968 1681.5,828C 1635.27,845.897 1603.44,878.064 1586,924.5C 1567.8,977.87 1564.47,1032.2 1576,1087.5C 1594.23,1168.31 1634.06,1236.14 1695.5,1291C 1721.15,1311.61 1749.15,1328.61 1779.5,1342C 1781.38,1343.05 1782.72,1344.55 1783.5,1346.5 Z"/></g>
<g><path style="opacity:0.985" fill="#86acd3" d="M 1798.5,783.5 C 1822.13,788.313 1843.13,798.48 1861.5,814C 1880.47,830.289 1895.64,849.455 1907,871.5C 1913.08,883.914 1917.25,896.914 1919.5,910.5C 1889.14,897.494 1857.48,889.327 1824.5,886C 1735.43,882.395 1678.93,923.562 1655,1009.5C 1646.81,1042.69 1643.81,1076.36 1646,1110.5C 1647.08,1127.39 1648.58,1144.22 1650.5,1161C 1649.35,1162.73 1648.19,1162.56 1647,1160.5C 1633.67,1128.51 1626,1095.17 1624,1060.5C 1620.14,1010.81 1629.47,963.81 1652,919.5C 1663.55,898.228 1679.72,881.395 1700.5,869C 1719.71,859.685 1740.04,855.519 1761.5,856.5C 1800.87,857.786 1839.53,863.286 1877.5,873C 1860.56,836.065 1834.56,807.399 1799.5,787C 1798.66,785.989 1798.33,784.822 1798.5,783.5 Z"/></g>
<g><path style="opacity:0.973" fill="#7298bd" d="M 1313.5,1137.5 C 1349.5,1136.91 1382.5,1146.41 1412.5,1166C 1417.97,1170.47 1423.13,1175.3 1428,1180.5C 1429.88,1182.53 1431.05,1184.86 1431.5,1187.5C 1412.21,1187.41 1393.87,1191.57 1376.5,1200C 1335.44,1220.05 1305.61,1250.89 1287,1292.5C 1280.82,1308.24 1277.66,1324.58 1277.5,1341.5C 1276.15,1342.52 1275.15,1343.85 1274.5,1345.5C 1265.75,1339.96 1261.75,1331.96 1262.5,1321.5C 1267.74,1267.84 1292.41,1225.67 1336.5,1195C 1352.69,1184.71 1370.36,1178.38 1389.5,1176C 1379.78,1162.63 1366.78,1153.96 1350.5,1150C 1328.44,1144.71 1306.27,1144.21 1284,1148.5C 1283.17,1148.17 1282.33,1147.83 1281.5,1147.5C 1282.41,1143.33 1285.07,1141.17 1289.5,1141C 1297.59,1139.4 1305.59,1138.23 1313.5,1137.5 Z"/></g>
<g><path style="opacity:0.99" fill="#7298bd" d="M 1462.5,1204.5 C 1477.93,1214.08 1493.27,1223.92 1508.5,1234C 1545.8,1251.64 1581.14,1272.31 1614.5,1296C 1632.74,1304.12 1650.74,1312.79 1668.5,1322C 1694.23,1333.47 1720.9,1342.13 1748.5,1348C 1760.28,1349.03 1771.95,1348.53 1783.5,1346.5C 1784.83,1346.5 1786.17,1346.5 1787.5,1346.5C 1787.5,1347.5 1787.5,1348.5 1787.5,1349.5C 1810.12,1345.24 1831.79,1338.07 1852.5,1328C 1831.68,1331.37 1811.35,1329.53 1791.5,1322.5C 1791.71,1321.91 1792.04,1321.41 1792.5,1321C 1814.91,1322.92 1836.24,1318.92 1856.5,1309C 1869.32,1302.76 1881.65,1295.76 1893.5,1288C 1908.34,1276.49 1923.18,1264.99 1938,1253.5C 1938.5,1253.83 1939,1254.17 1939.5,1254.5C 1939.12,1263.71 1936.95,1272.71 1933,1281.5C 1907.12,1337.89 1863.96,1373.73 1803.5,1389C 1775.63,1396.17 1747.29,1399.84 1718.5,1400C 1693.15,1400.21 1667.82,1400.87 1642.5,1402C 1624.44,1402.77 1606.77,1405.77 1589.5,1411C 1563.14,1422.02 1543.98,1440.52 1532,1466.5C 1527,1481.54 1525.66,1496.87 1528,1512.5C 1529.41,1515.58 1531.24,1518.42 1533.5,1521C 1532.75,1522.49 1531.91,1522.65 1531,1521.5C 1529.04,1527.95 1526.7,1527.95 1524,1521.5C 1512.12,1497.54 1511.45,1473.21 1522,1448.5C 1537.67,1416.49 1561.17,1391.99 1592.5,1375C 1625.11,1358.34 1659.78,1350.34 1696.5,1351C 1659.37,1348.11 1623.04,1341.11 1587.5,1330C 1565.94,1322.92 1544.6,1315.26 1523.5,1307C 1500.41,1295.95 1477.41,1284.62 1454.5,1273C 1413.35,1266.99 1382.18,1281.83 1361,1317.5C 1348.08,1350.74 1354.58,1379.58 1380.5,1404C 1400.72,1420.26 1422.72,1423.26 1446.5,1413C 1471.04,1396.71 1478.87,1374.54 1470,1346.5C 1462.16,1331.57 1450.16,1326.24 1434,1330.5C 1429.99,1337.24 1425.99,1343.91 1422,1350.5C 1414.17,1355.97 1407.17,1354.97 1401,1347.5C 1391.35,1325.08 1395.52,1305.58 1413.5,1289C 1429.59,1277.85 1446.92,1275.52 1465.5,1282C 1506.95,1303.72 1524.45,1337.89 1518,1384.5C 1508.32,1431.18 1480.16,1459.68 1433.5,1470C 1405,1475.46 1377.34,1472.79 1350.5,1462C 1319.48,1445.97 1298.98,1421.14 1289,1387.5C 1280.5,1358.66 1280.84,1329.99 1290,1301.5C 1305.27,1251.23 1337.77,1217.73 1387.5,1201C 1412.92,1194.08 1437.92,1195.25 1462.5,1204.5 Z"/></g>
<g><path style="opacity:0.004" fill="#fefffe" d="M 1514.5,1312.5 C 1515.83,1313.17 1515.83,1313.17 1514.5,1312.5 Z"/></g>
<g><path style="opacity:0.972" fill="#5a8cbd" d="M 1664.5,1418.5 C 1667.52,1418.34 1670.52,1418.5 1673.5,1419C 1674.83,1420 1674.83,1421 1673.5,1422C 1659.36,1425.38 1646.03,1430.71 1633.5,1438C 1622.33,1445.09 1611.33,1452.42 1600.5,1460C 1586.9,1470.93 1573.9,1482.59 1561.5,1495C 1545.69,1504.62 1539.53,1500.45 1543,1482.5C 1546.43,1472.39 1552.26,1463.89 1560.5,1457C 1575,1445.75 1591,1437.08 1608.5,1431C 1627.09,1425.85 1645.76,1421.69 1664.5,1418.5 Z"/></g>
<g><path style="opacity:0.078" fill="#507486" d="M 1444.5,1495.5 C 1445.25,1494.43 1446.25,1494.26 1447.5,1495C 1446.55,1495.48 1445.55,1495.65 1444.5,1495.5 Z"/></g>
</svg>
